<svg width="72" height="19" viewBox="0 0 72 19" fill="none" xmlns="http://www.w3.org/2000/svg">
<path d="M11.736 14.28H4.44L3.096 18H0.792L6.84 1.368H9.36L15.384 18H13.08L11.736 14.28ZM11.112 12.504L8.088 4.056L5.064 12.504H11.112ZM20.2039 7.296C20.6519 6.512 21.3079 5.872 22.1719 5.376C23.0359 4.88 24.0199 4.632 25.1239 4.632C26.3079 4.632 27.3719 4.912 28.3159 5.472C29.2599 6.032 30.0039 6.824 30.5479 7.848C31.0919 8.856 31.3639 10.032 31.3639 11.376C31.3639 12.704 31.0919 13.888 30.5479 14.928C30.0039 15.968 29.2519 16.776 28.2919 17.352C27.3479 17.928 26.2919 18.216 25.1239 18.216C23.9879 18.216 22.9879 17.968 22.1239 17.472C21.2759 16.976 20.6359 16.344 20.2039 15.576V18H18.0199V0.24H20.2039V7.296ZM29.1319 11.376C29.1319 10.384 28.9319 9.52 28.5319 8.784C28.1319 8.048 27.5879 7.488 26.8999 7.104C26.2279 6.72 25.4839 6.528 24.6679 6.528C23.8679 6.528 23.1239 6.728 22.4359 7.128C21.7639 7.512 21.2199 8.08 20.8039 8.832C20.4039 9.568 20.2039 10.424 20.2039 11.4C20.2039 12.392 20.4039 13.264 20.8039 14.016C21.2199 14.752 21.7639 15.32 22.4359 15.72C23.1239 16.104 23.8679 16.296 24.6679 16.296C25.4839 16.296 26.2279 16.104 26.8999 15.72C27.5879 15.32 28.1319 14.752 28.5319 14.016C28.9319 13.264 29.1319 12.384 29.1319 11.376ZM39.9746 18.216C38.7426 18.216 37.6226 17.936 36.6146 17.376C35.6226 16.816 34.8386 16.024 34.2626 15C33.7026 13.96 33.4226 12.76 33.4226 11.4C33.4226 10.056 33.7106 8.872 34.2866 7.848C34.8786 6.808 35.6786 6.016 36.6866 5.472C37.6946 4.912 38.8226 4.632 40.0706 4.632C41.3186 4.632 42.4466 4.912 43.4546 5.472C44.4626 6.016 45.2546 6.8 45.8306 7.824C46.4226 8.848 46.7186 10.04 46.7186 11.4C46.7186 12.76 46.4146 13.96 45.8066 15C45.2146 16.024 44.4066 16.816 43.3826 17.376C42.3586 17.936 41.2226 18.216 39.9746 18.216ZM39.9746 16.296C40.7586 16.296 41.4946 16.112 42.1826 15.744C42.8706 15.376 43.4226 14.824 43.8386 14.088C44.2706 13.352 44.4866 12.456 44.4866 11.4C44.4866 10.344 44.2786 9.448 43.8626 8.712C43.4466 7.976 42.9026 7.432 42.2306 7.08C41.5586 6.712 40.8306 6.528 40.0466 6.528C39.2466 6.528 38.5106 6.712 37.8386 7.08C37.1826 7.432 36.6546 7.976 36.2546 8.712C35.8546 9.448 35.6546 10.344 35.6546 11.4C35.6546 12.472 35.8466 13.376 36.2306 14.112C36.6306 14.848 37.1586 15.4 37.8146 15.768C38.4706 16.12 39.1906 16.296 39.9746 16.296ZM61.2542 4.848V18H59.0702V16.056C58.6542 16.728 58.0702 17.256 57.3182 17.64C56.5822 18.008 55.7662 18.192 54.8702 18.192C53.8462 18.192 52.9262 17.984 52.1102 17.568C51.2942 17.136 50.6462 16.496 50.1662 15.648C49.7022 14.8 49.4702 13.768 49.4702 12.552V4.848H51.6302V12.264C51.6302 13.56 51.9582 14.56 52.6142 15.264C53.2702 15.952 54.1662 16.296 55.3022 16.296C56.4702 16.296 57.3902 15.936 58.0622 15.216C58.7342 14.496 59.0702 13.448 59.0702 12.072V4.848H61.2542ZM67.6058 6.648V14.4C67.6058 15.04 67.7418 15.496 68.0138 15.768C68.2858 16.024 68.7578 16.152 69.4297 16.152H71.0378V18H69.0698C67.8538 18 66.9418 17.72 66.3338 17.16C65.7258 16.6 65.4218 15.68 65.4218 14.4V6.648H63.7178V4.848H65.4218V1.536H67.6058V4.848H71.0378V6.648H67.6058Z" fill="#404040"/>
</svg>
