<svg width="33" height="32" viewBox="0 0 33 32" fill="none" xmlns="http://www.w3.org/2000/svg">
<g clip-path="url(#clip0_129_333)">
<path d="M0.064003 24.032V5.59997C0.064003 5.57863 0.096003 5.37597 0.160003 4.99197L11.008 14.272L0.192003 24.672C0.10667 24.3733 0.064003 24.16 0.064003 24.032ZM1.504 3.71197C1.65334 3.64797 1.83467 3.61597 2.048 3.61597H31.264C31.456 3.61597 31.648 3.64797 31.84 3.71197L20.96 13.024L19.52 14.176L16.672 16.512L13.824 14.176L12.384 13.024L1.504 3.71197ZM1.536 25.92L12.448 15.456L16.672 18.88L20.896 15.456L31.808 25.92C31.6373 25.984 31.456 26.016 31.264 26.016H2.048C1.87734 26.016 1.70667 25.984 1.536 25.92ZM22.336 14.272L33.152 4.99197C33.216 5.18397 33.248 5.38663 33.248 5.59997V24.032C33.248 24.224 33.216 24.4373 33.152 24.672L22.336 14.272Z" fill="#404040"/>
</g>
<defs>
<clipPath id="clip0_129_333">
<rect width="33" height="32" fill="white"/>
</clipPath>
</defs>
</svg>
