<svg width="42" height="24" viewBox="0 0 42 24" fill="none" xmlns="http://www.w3.org/2000/svg">
<path d="M10.304 0.271999V2.048H3.032V7.688H8.936V9.464H3.032V17H0.848V0.271999H10.304ZM12.1258 10.376C12.1258 9.032 12.3978 7.856 12.9418 6.848C13.4858 5.824 14.2298 5.032 15.1738 4.472C16.1338 3.912 17.1978 3.632 18.3658 3.632C19.5178 3.632 20.5178 3.88 21.3658 4.376C22.2138 4.872 22.8458 5.496 23.2618 6.248V3.848H25.4698V17H23.2618V14.552C22.8298 15.32 22.1818 15.96 21.3178 16.472C20.4698 16.968 19.4778 17.216 18.3418 17.216C17.1738 17.216 16.1178 16.928 15.1738 16.352C14.2298 15.776 13.4858 14.968 12.9418 13.928C12.3978 12.888 12.1258 11.704 12.1258 10.376ZM23.2618 10.4C23.2618 9.408 23.0618 8.544 22.6618 7.808C22.2618 7.072 21.7178 6.512 21.0298 6.128C20.3578 5.728 19.6138 5.528 18.7978 5.528C17.9818 5.528 17.2378 5.72 16.5658 6.104C15.8938 6.488 15.3578 7.048 14.9578 7.784C14.5578 8.52 14.3578 9.384 14.3578 10.376C14.3578 11.384 14.5578 12.264 14.9578 13.016C15.3578 13.752 15.8938 14.32 16.5658 14.72C17.2378 15.104 17.9818 15.296 18.7978 15.296C19.6138 15.296 20.3578 15.104 21.0298 14.72C21.7178 14.32 22.2618 13.752 22.6618 13.016C23.0618 12.264 23.2618 11.392 23.2618 10.4ZM28.3445 10.376C28.3445 9.032 28.6165 7.856 29.1605 6.848C29.7045 5.824 30.4485 5.032 31.3925 4.472C32.3525 3.912 33.4245 3.632 34.6085 3.632C35.7445 3.632 36.7365 3.888 37.5845 4.4C38.4485 4.896 39.0805 5.512 39.4805 6.248V3.848H41.6885V23.24H39.4805V14.576C39.0645 15.312 38.4245 15.936 37.5605 16.448C36.6965 16.96 35.6885 17.216 34.5365 17.216C33.3845 17.216 32.3365 16.928 31.3925 16.352C30.4485 15.776 29.7045 14.968 29.1605 13.928C28.6165 12.888 28.3445 11.704 28.3445 10.376ZM39.4805 10.4C39.4805 9.408 39.2805 8.544 38.8805 7.808C38.4805 7.072 37.9365 6.512 37.2485 6.128C36.5765 5.728 35.8325 5.528 35.0165 5.528C34.2005 5.528 33.4565 5.72 32.7845 6.104C32.1125 6.488 31.5765 7.048 31.1765 7.784C30.7765 8.52 30.5765 9.384 30.5765 10.376C30.5765 11.384 30.7765 12.264 31.1765 13.016C31.5765 13.752 32.1125 14.32 32.7845 14.72C33.4565 15.104 34.2005 15.296 35.0165 15.296C35.8325 15.296 36.5765 15.104 37.2485 14.72C37.9365 14.32 38.4805 13.752 38.8805 13.016C39.2805 12.264 39.4805 11.392 39.4805 10.4Z" fill="#404040"/>
</svg>
