<svg width="107" height="18" viewBox="0 0 107 18" fill="none" xmlns="http://www.w3.org/2000/svg">
<path d="M11.456 0.151999V3.44H4.592V6.992H9.728V10.184H4.592V17H0.488V0.151999H11.456ZM26.237 10.088C26.237 10.472 26.213 10.872 26.165 11.288H16.877C16.941 12.12 17.205 12.76 17.669 13.208C18.149 13.64 18.733 13.856 19.421 13.856C20.445 13.856 21.157 13.424 21.557 12.56H25.925C25.701 13.44 25.293 14.232 24.701 14.936C24.125 15.64 23.397 16.192 22.517 16.592C21.637 16.992 20.653 17.192 19.565 17.192C18.253 17.192 17.085 16.912 16.061 16.352C15.037 15.792 14.237 14.992 13.661 13.952C13.085 12.912 12.797 11.696 12.797 10.304C12.797 8.912 13.077 7.696 13.637 6.656C14.213 5.616 15.013 4.816 16.037 4.256C17.061 3.696 18.237 3.416 19.565 3.416C20.861 3.416 22.013 3.688 23.021 4.232C24.029 4.776 24.813 5.552 25.373 6.56C25.949 7.568 26.237 8.744 26.237 10.088ZM22.037 9.008C22.037 8.304 21.797 7.744 21.317 7.328C20.837 6.912 20.237 6.704 19.517 6.704C18.829 6.704 18.245 6.904 17.765 7.304C17.301 7.704 17.013 8.272 16.901 9.008H22.037ZM27.5861 10.28C27.5861 8.904 27.8421 7.696 28.3541 6.656C28.8821 5.616 29.5941 4.816 30.4901 4.256C31.3861 3.696 32.3861 3.416 33.4901 3.416C34.4341 3.416 35.2581 3.608 35.9621 3.992C36.6821 4.376 37.2341 4.88 37.6181 5.504V3.608H41.7221V17H37.6181V15.104C37.2181 15.728 36.6581 16.232 35.9381 16.616C35.2341 17 34.4101 17.192 33.4661 17.192C32.3781 17.192 31.3861 16.912 30.4901 16.352C29.5941 15.776 28.8821 14.968 28.3541 13.928C27.8421 12.872 27.5861 11.656 27.5861 10.28ZM37.6181 10.304C37.6181 9.28 37.3301 8.472 36.7541 7.88C36.1941 7.288 35.5061 6.992 34.6901 6.992C33.8741 6.992 33.1781 7.288 32.6021 7.88C32.0421 8.456 31.7621 9.256 31.7621 10.28C31.7621 11.304 32.0421 12.12 32.6021 12.728C33.1781 13.32 33.8741 13.616 34.6901 13.616C35.5061 13.616 36.1941 13.32 36.7541 12.728C37.3301 12.136 37.6181 11.328 37.6181 10.304ZM57.9151 3.608V17H53.8111V15.176C53.3951 15.768 52.8271 16.248 52.1071 16.616C51.4031 16.968 50.6191 17.144 49.7551 17.144C48.7311 17.144 47.8271 16.92 47.0431 16.472C46.2591 16.008 45.6511 15.344 45.2191 14.48C44.7871 13.616 44.5711 12.6 44.5711 11.432V3.608H48.6511V10.88C48.6511 11.776 48.8831 12.472 49.3471 12.968C49.8111 13.464 50.4351 13.712 51.2191 13.712C52.0191 13.712 52.6511 13.464 53.1151 12.968C53.5791 12.472 53.8111 11.776 53.8111 10.88V3.608H57.9151ZM68.327 13.52V17H66.239C64.751 17 63.591 16.64 62.759 15.92C61.927 15.184 61.511 13.992 61.511 12.344V7.016H59.879V3.608H61.511V0.344H65.615V3.608H68.303V7.016H65.615V12.392C65.615 12.792 65.711 13.08 65.903 13.256C66.095 13.432 66.415 13.52 66.863 13.52H68.327ZM74.717 5.84C75.197 5.104 75.797 4.528 76.517 4.112C77.237 3.68 78.037 3.464 78.917 3.464V7.808H77.789C76.765 7.808 75.997 8.032 75.485 8.48C74.973 8.912 74.717 9.68 74.717 10.784V17H70.613V3.608H74.717V5.84ZM93.5026 10.088C93.5026 10.472 93.4786 10.872 93.4306 11.288H84.1426C84.2066 12.12 84.4706 12.76 84.9346 13.208C85.4146 13.64 85.9986 13.856 86.6866 13.856C87.7106 13.856 88.4226 13.424 88.8226 12.56H93.1906C92.9666 13.44 92.5586 14.232 91.9666 14.936C91.3906 15.64 90.6626 16.192 89.7826 16.592C88.9026 16.992 87.9186 17.192 86.8306 17.192C85.5186 17.192 84.3506 16.912 83.3266 16.352C82.3026 15.792 81.5026 14.992 80.9266 13.952C80.3506 12.912 80.0626 11.696 80.0626 10.304C80.0626 8.912 80.3426 7.696 80.9026 6.656C81.4786 5.616 82.2786 4.816 83.3026 4.256C84.3266 3.696 85.5026 3.416 86.8306 3.416C88.1266 3.416 89.2786 3.688 90.2866 4.232C91.2946 4.776 92.0786 5.552 92.6386 6.56C93.2146 7.568 93.5026 8.744 93.5026 10.088ZM89.3026 9.008C89.3026 8.304 89.0626 7.744 88.5826 7.328C88.1026 6.912 87.5026 6.704 86.7826 6.704C86.0946 6.704 85.5106 6.904 85.0306 7.304C84.5666 7.704 84.2786 8.272 84.1666 9.008H89.3026ZM101.116 17.192C99.9477 17.192 98.9077 16.992 97.9957 16.592C97.0837 16.192 96.3637 15.648 95.8357 14.96C95.3077 14.256 95.0117 13.472 94.9477 12.608H99.0037C99.0517 13.072 99.2677 13.448 99.6517 13.736C100.036 14.024 100.508 14.168 101.068 14.168C101.58 14.168 101.972 14.072 102.244 13.88C102.532 13.672 102.676 13.408 102.676 13.088C102.676 12.704 102.476 12.424 102.076 12.248C101.676 12.056 101.028 11.848 100.132 11.624C99.1717 11.4 98.3717 11.168 97.7317 10.928C97.0917 10.672 96.5397 10.28 96.0757 9.752C95.6117 9.208 95.3797 8.48 95.3797 7.568C95.3797 6.8 95.5877 6.104 96.0037 5.48C96.4357 4.84 97.0597 4.336 97.8757 3.968C98.7077 3.6 99.6917 3.416 100.828 3.416C102.508 3.416 103.828 3.832 104.788 4.664C105.764 5.496 106.324 6.6 106.468 7.976H102.676C102.612 7.512 102.404 7.144 102.052 6.872C101.716 6.6 101.268 6.464 100.708 6.464C100.228 6.464 99.8597 6.56 99.6037 6.752C99.3477 6.928 99.2197 7.176 99.2197 7.496C99.2197 7.88 99.4197 8.168 99.8197 8.36C100.236 8.552 100.876 8.744 101.74 8.936C102.732 9.192 103.54 9.448 104.164 9.704C104.788 9.944 105.332 10.344 105.796 10.904C106.276 11.448 106.524 12.184 106.54 13.112C106.54 13.896 106.316 14.6 105.868 15.224C105.436 15.832 104.804 16.312 103.972 16.664C103.156 17.016 102.204 17.192 101.116 17.192Z" fill="#404040"/>
</svg>
