<svg width="53" height="25" viewBox="0 0 53 25" fill="none" xmlns="http://www.w3.org/2000/svg">
<path d="M14.12 1.32V18H11.384V10.704H3.536V18H0.8V1.32H3.536V8.472H11.384V1.32H14.12ZM29.8419 11.064C29.8419 11.56 29.8099 12.008 29.7459 12.408H19.6419C19.7219 13.464 20.1139 14.312 20.8179 14.952C21.5219 15.592 22.3859 15.912 23.4099 15.912C24.8819 15.912 25.9219 15.296 26.5299 14.064H29.4819C29.0819 15.28 28.3539 16.28 27.2979 17.064C26.2579 17.832 24.9619 18.216 23.4099 18.216C22.1459 18.216 21.0099 17.936 20.0019 17.376C19.0099 16.8 18.2259 16 17.6499 14.976C17.0899 13.936 16.8099 12.736 16.8099 11.376C16.8099 10.016 17.0819 8.824 17.6259 7.8C18.1859 6.76 18.9619 5.96 19.9539 5.4C20.9619 4.84 22.1139 4.56 23.4099 4.56C24.6579 4.56 25.7699 4.832 26.7459 5.376C27.7219 5.92 28.4819 6.688 29.0259 7.68C29.5699 8.656 29.8419 9.784 29.8419 11.064ZM26.9859 10.2C26.9699 9.192 26.6099 8.384 25.9059 7.776C25.2019 7.168 24.3299 6.864 23.2899 6.864C22.3459 6.864 21.5379 7.168 20.8659 7.776C20.1939 8.368 19.7939 9.176 19.6659 10.2H26.9859ZM35.2704 0.24V18H32.5344V0.24H35.2704ZM41.5985 6.72C42.0625 6.112 42.6945 5.6 43.4945 5.184C44.2945 4.768 45.1985 4.56 46.2065 4.56C47.3585 4.56 48.4065 4.848 49.3505 5.424C50.3105 5.984 51.0625 6.776 51.6065 7.8C52.1505 8.824 52.4225 10 52.4225 11.328C52.4225 12.656 52.1505 13.848 51.6065 14.904C51.0625 15.944 50.3105 16.76 49.3505 17.352C48.4065 17.928 47.3585 18.216 46.2065 18.216C45.1985 18.216 44.3025 18.016 43.5185 17.616C42.7345 17.2 42.0945 16.688 41.5985 16.08V24.288H38.8625V4.776H41.5985V6.72ZM49.6385 11.328C49.6385 10.416 49.4465 9.632 49.0625 8.976C48.6945 8.304 48.1985 7.8 47.5745 7.464C46.9665 7.112 46.3105 6.936 45.6065 6.936C44.9185 6.936 44.2625 7.112 43.6385 7.464C43.0305 7.816 42.5345 8.328 42.1505 9C41.7825 9.672 41.5985 10.464 41.5985 11.376C41.5985 12.288 41.7825 13.088 42.1505 13.776C42.5345 14.448 43.0305 14.96 43.6385 15.312C44.2625 15.664 44.9185 15.84 45.6065 15.84C46.3105 15.84 46.9665 15.664 47.5745 15.312C48.1985 14.944 48.6945 14.416 49.0625 13.728C49.4465 13.04 49.6385 12.24 49.6385 11.328Z" fill="white"/>
</svg>
