<svg width="52" height="25" viewBox="0 0 52 25" fill="none" xmlns="http://www.w3.org/2000/svg">
<path d="M13.736 1.272V18H11.552V10.416H3.032V18H0.848V1.272H3.032V8.616H11.552V1.272H13.736ZM29.4652 10.92C29.4652 11.336 29.4412 11.776 29.3932 12.24H18.8812C18.9612 13.536 19.4012 14.552 20.2012 15.288C21.0172 16.008 22.0012 16.368 23.1532 16.368C24.0972 16.368 24.8812 16.152 25.5052 15.72C26.1452 15.272 26.5932 14.68 26.8492 13.944H29.2012C28.8492 15.208 28.1452 16.24 27.0892 17.04C26.0332 17.824 24.7212 18.216 23.1532 18.216C21.9052 18.216 20.7852 17.936 19.7932 17.376C18.8172 16.816 18.0492 16.024 17.4892 15C16.9292 13.96 16.6492 12.76 16.6492 11.4C16.6492 10.04 16.9212 8.848 17.4652 7.824C18.0092 6.8 18.7692 6.016 19.7452 5.472C20.7372 4.912 21.8732 4.632 23.1532 4.632C24.4012 4.632 25.5052 4.904 26.4652 5.448C27.4252 5.992 28.1612 6.744 28.6732 7.704C29.2012 8.648 29.4652 9.72 29.4652 10.92ZM27.2092 10.464C27.2092 9.632 27.0252 8.92 26.6572 8.328C26.2892 7.72 25.7852 7.264 25.1452 6.96C24.5212 6.64 23.8252 6.48 23.0572 6.48C21.9532 6.48 21.0092 6.832 20.2252 7.536C19.4572 8.24 19.0172 9.216 18.9052 10.464H27.2092ZM34.532 0.24V18H32.348V0.24H34.532ZM40.4383 7.272C40.8703 6.52 41.5103 5.896 42.3583 5.4C43.2223 4.888 44.2223 4.632 45.3583 4.632C46.5263 4.632 47.5823 4.912 48.5262 5.472C49.4862 6.032 50.2383 6.824 50.7823 7.848C51.3263 8.856 51.5983 10.032 51.5983 11.376C51.5983 12.704 51.3263 13.888 50.7823 14.928C50.2383 15.968 49.4862 16.776 48.5262 17.352C47.5823 17.928 46.5263 18.216 45.3583 18.216C44.2383 18.216 43.2463 17.968 42.3823 17.472C41.5343 16.96 40.8863 16.328 40.4383 15.576V24.24H38.2543V4.848H40.4383V7.272ZM49.3663 11.376C49.3663 10.384 49.1663 9.52 48.7663 8.784C48.3663 8.048 47.8223 7.488 47.1343 7.104C46.4623 6.72 45.7183 6.528 44.9023 6.528C44.1023 6.528 43.3583 6.728 42.6703 7.128C41.9983 7.512 41.4543 8.08 41.0383 8.832C40.6383 9.568 40.4383 10.424 40.4383 11.4C40.4383 12.392 40.6383 13.264 41.0383 14.016C41.4543 14.752 41.9983 15.32 42.6703 15.72C43.3583 16.104 44.1023 16.296 44.9023 16.296C45.7183 16.296 46.4623 16.104 47.1343 15.72C47.8223 15.32 48.3663 14.752 48.7663 14.016C49.1663 13.264 49.3663 12.384 49.3663 11.376Z" fill="#404040"/>
</svg>
