<svg width="72" height="18" viewBox="0 0 72 18" fill="none" xmlns="http://www.w3.org/2000/svg">
<path d="M15.08 0.151999V17H10.976V10.064H4.592V17H0.488V0.151999H4.592V6.752H10.976V0.151999H15.08ZM24.1387 17.192C22.8267 17.192 21.6427 16.912 20.5867 16.352C19.5467 15.792 18.7227 14.992 18.1147 13.952C17.5227 12.912 17.2267 11.696 17.2267 10.304C17.2267 8.928 17.5307 7.72 18.1387 6.68C18.7467 5.624 19.5787 4.816 20.6347 4.256C21.6907 3.696 22.8747 3.416 24.1867 3.416C25.4987 3.416 26.6827 3.696 27.7387 4.256C28.7947 4.816 29.6267 5.624 30.2347 6.68C30.8427 7.72 31.1467 8.928 31.1467 10.304C31.1467 11.68 30.8347 12.896 30.2107 13.952C29.6027 14.992 28.7627 15.792 27.6907 16.352C26.6347 16.912 25.4507 17.192 24.1387 17.192ZM24.1387 13.64C24.9227 13.64 25.5867 13.352 26.1307 12.776C26.6907 12.2 26.9707 11.376 26.9707 10.304C26.9707 9.232 26.6987 8.408 26.1547 7.832C25.6267 7.256 24.9707 6.968 24.1867 6.968C23.3867 6.968 22.7227 7.256 22.1947 7.832C21.6667 8.392 21.4027 9.216 21.4027 10.304C21.4027 11.376 21.6587 12.2 22.1707 12.776C22.6987 13.352 23.3547 13.64 24.1387 13.64ZM50.4119 3.464C52.0759 3.464 53.3959 3.968 54.3719 4.976C55.3639 5.984 55.8599 7.384 55.8599 9.176V17H51.7799V9.728C51.7799 8.864 51.5479 8.2 51.0839 7.736C50.6359 7.256 50.0119 7.016 49.2119 7.016C48.4119 7.016 47.7799 7.256 47.3159 7.736C46.8679 8.2 46.6439 8.864 46.6439 9.728V17H42.5639V9.728C42.5639 8.864 42.3319 8.2 41.8679 7.736C41.4199 7.256 40.7959 7.016 39.9959 7.016C39.1959 7.016 38.5639 7.256 38.0999 7.736C37.6519 8.2 37.4279 8.864 37.4279 9.728V17H33.3239V3.608H37.4279V5.288C37.8439 4.728 38.3879 4.288 39.0599 3.968C39.7319 3.632 40.4919 3.464 41.3399 3.464C42.3479 3.464 43.2439 3.68 44.0279 4.112C44.8279 4.544 45.4519 5.16 45.8999 5.96C46.3639 5.224 46.9959 4.624 47.7959 4.16C48.5959 3.696 49.4679 3.464 50.4119 3.464ZM71.3542 10.088C71.3542 10.472 71.3302 10.872 71.2822 11.288H61.9942C62.0582 12.12 62.3222 12.76 62.7862 13.208C63.2662 13.64 63.8502 13.856 64.5382 13.856C65.5622 13.856 66.2742 13.424 66.6742 12.56H71.0422C70.8182 13.44 70.4102 14.232 69.8182 14.936C69.2422 15.64 68.5142 16.192 67.6342 16.592C66.7542 16.992 65.7702 17.192 64.6822 17.192C63.3702 17.192 62.2022 16.912 61.1782 16.352C60.1542 15.792 59.3542 14.992 58.7782 13.952C58.2022 12.912 57.9142 11.696 57.9142 10.304C57.9142 8.912 58.1942 7.696 58.7542 6.656C59.3302 5.616 60.1302 4.816 61.1542 4.256C62.1782 3.696 63.3542 3.416 64.6822 3.416C65.9782 3.416 67.1302 3.688 68.1382 4.232C69.1462 4.776 69.9302 5.552 70.4902 6.56C71.0662 7.568 71.3542 8.744 71.3542 10.088ZM67.1542 9.008C67.1542 8.304 66.9142 7.744 66.4342 7.328C65.9542 6.912 65.3542 6.704 64.6342 6.704C63.9462 6.704 63.3622 6.904 62.8822 7.304C62.4182 7.704 62.1302 8.272 62.0182 9.008H67.1542Z" fill="#FFA500"/>
</svg>
