<svg width="137" height="27" viewBox="0 0 137 27" fill="none" xmlns="http://www.w3.org/2000/svg">
<path d="M4.592 3.152V20H0.488V3.152H4.592ZM15.7261 6.464C17.2941 6.464 18.5421 6.976 19.4701 8C20.4141 9.008 20.8861 10.4 20.8861 12.176V20H16.8061V12.728C16.8061 11.832 16.5741 11.136 16.1101 10.64C15.6461 10.144 15.0221 9.896 14.2381 9.896C13.4541 9.896 12.8301 10.144 12.3661 10.64C11.9021 11.136 11.6701 11.832 11.6701 12.728V20H7.56613V6.608H11.6701V8.384C12.0861 7.792 12.6461 7.328 13.3501 6.992C14.0541 6.64 14.8461 6.464 15.7261 6.464ZM31.202 16.52V20H29.114C27.626 20 26.466 19.64 25.634 18.92C24.802 18.184 24.386 16.992 24.386 15.344V10.016H22.754V6.608H24.386V3.344H28.49V6.608H31.178V10.016H28.49V15.392C28.49 15.792 28.586 16.08 28.778 16.256C28.97 16.432 29.29 16.52 29.738 16.52H31.202ZM46.112 13.088C46.112 13.472 46.088 13.872 46.04 14.288H36.752C36.816 15.12 37.08 15.76 37.544 16.208C38.024 16.64 38.608 16.856 39.296 16.856C40.32 16.856 41.032 16.424 41.432 15.56H45.8C45.576 16.44 45.168 17.232 44.576 17.936C44 18.64 43.272 19.192 42.392 19.592C41.512 19.992 40.528 20.192 39.44 20.192C38.128 20.192 36.96 19.912 35.936 19.352C34.912 18.792 34.112 17.992 33.536 16.952C32.96 15.912 32.672 14.696 32.672 13.304C32.672 11.912 32.952 10.696 33.512 9.656C34.088 8.616 34.888 7.816 35.912 7.256C36.936 6.696 38.112 6.416 39.44 6.416C40.736 6.416 41.888 6.688 42.896 7.232C43.904 7.776 44.688 8.552 45.248 9.56C45.824 10.568 46.112 11.744 46.112 13.088ZM41.912 12.008C41.912 11.304 41.672 10.744 41.192 10.328C40.712 9.912 40.112 9.704 39.392 9.704C38.704 9.704 38.12 9.904 37.64 10.304C37.176 10.704 36.888 11.272 36.776 12.008H41.912ZM53.3651 6.416C54.3091 6.416 55.1331 6.608 55.8371 6.992C56.5571 7.376 57.1091 7.88 57.4931 8.504V6.608H61.5971V19.976C61.5971 21.208 61.3491 22.32 60.8531 23.312C60.3731 24.32 59.6291 25.12 58.6211 25.712C57.6291 26.304 56.3891 26.6 54.9011 26.6C52.9171 26.6 51.3091 26.128 50.0771 25.184C48.8451 24.256 48.1411 22.992 47.9651 21.392H52.0211C52.1491 21.904 52.4531 22.304 52.9331 22.592C53.4131 22.896 54.0051 23.048 54.7091 23.048C55.5571 23.048 56.2291 22.8 56.7251 22.304C57.2371 21.824 57.4931 21.048 57.4931 19.976V18.08C57.0931 18.704 56.5411 19.216 55.8371 19.616C55.1331 20 54.3091 20.192 53.3651 20.192C52.2611 20.192 51.2611 19.912 50.3651 19.352C49.4691 18.776 48.7571 17.968 48.2291 16.928C47.7171 15.872 47.4611 14.656 47.4611 13.28C47.4611 11.904 47.7171 10.696 48.2291 9.656C48.7571 8.616 49.4691 7.816 50.3651 7.256C51.2611 6.696 52.2611 6.416 53.3651 6.416ZM57.4931 13.304C57.4931 12.28 57.2051 11.472 56.6291 10.88C56.0691 10.288 55.3811 9.992 54.5651 9.992C53.7491 9.992 53.0531 10.288 52.4771 10.88C51.9171 11.456 51.6371 12.256 51.6371 13.28C51.6371 14.304 51.9171 15.12 52.4771 15.728C53.0531 16.32 53.7491 16.616 54.5651 16.616C55.3811 16.616 56.0691 16.32 56.6291 15.728C57.2051 15.136 57.4931 14.328 57.4931 13.304ZM68.6701 8.84C69.1501 8.104 69.7501 7.528 70.4701 7.112C71.1901 6.68 71.9901 6.464 72.8701 6.464V10.808H71.7421C70.7181 10.808 69.9501 11.032 69.4381 11.48C68.9261 11.912 68.6701 12.68 68.6701 13.784V20H64.5661V6.608H68.6701V8.84ZM74.0158 13.28C74.0158 11.904 74.2718 10.696 74.7838 9.656C75.3118 8.616 76.0238 7.816 76.9198 7.256C77.8158 6.696 78.8158 6.416 79.9198 6.416C80.8638 6.416 81.6878 6.608 82.3918 6.992C83.1118 7.376 83.6638 7.88 84.0478 8.504V6.608H88.1518V20H84.0478V18.104C83.6478 18.728 83.0878 19.232 82.3678 19.616C81.6638 20 80.8398 20.192 79.8958 20.192C78.8078 20.192 77.8158 19.912 76.9198 19.352C76.0238 18.776 75.3118 17.968 74.7838 16.928C74.2718 15.872 74.0158 14.656 74.0158 13.28ZM84.0478 13.304C84.0478 12.28 83.7598 11.472 83.1838 10.88C82.6238 10.288 81.9358 9.992 81.1198 9.992C80.3038 9.992 79.6078 10.288 79.0318 10.88C78.4718 11.456 78.1918 12.256 78.1918 13.28C78.1918 14.304 78.4718 15.12 79.0318 15.728C79.6078 16.32 80.3038 16.616 81.1198 16.616C81.9358 16.616 82.6238 16.32 83.1838 15.728C83.7598 15.136 84.0478 14.328 84.0478 13.304ZM98.5848 16.52V20H96.4968C95.0088 20 93.8488 19.64 93.0168 18.92C92.1848 18.184 91.7688 16.992 91.7688 15.344V10.016H90.1368V6.608H91.7688V3.344H95.8728V6.608H98.5608V10.016H95.8728V15.392C95.8728 15.792 95.9688 16.08 96.1608 16.256C96.3528 16.432 96.6728 16.52 97.1208 16.52H98.5848ZM102.935 5.216C102.215 5.216 101.623 5.008 101.159 4.592C100.711 4.16 100.487 3.632 100.487 3.008C100.487 2.368 100.711 1.84 101.159 1.424C101.623 0.991999 102.215 0.775999 102.935 0.775999C103.639 0.775999 104.215 0.991999 104.663 1.424C105.127 1.84 105.359 2.368 105.359 3.008C105.359 3.632 105.127 4.16 104.663 4.592C104.215 5.008 103.639 5.216 102.935 5.216ZM104.975 6.608V20H100.871V6.608H104.975ZM114.045 20.192C112.733 20.192 111.549 19.912 110.493 19.352C109.453 18.792 108.629 17.992 108.021 16.952C107.429 15.912 107.133 14.696 107.133 13.304C107.133 11.928 107.437 10.72 108.045 9.68C108.653 8.624 109.485 7.816 110.541 7.256C111.597 6.696 112.781 6.416 114.093 6.416C115.405 6.416 116.589 6.696 117.645 7.256C118.701 7.816 119.533 8.624 120.141 9.68C120.749 10.72 121.053 11.928 121.053 13.304C121.053 14.68 120.741 15.896 120.117 16.952C119.509 17.992 118.669 18.792 117.597 19.352C116.541 19.912 115.357 20.192 114.045 20.192ZM114.045 16.64C114.829 16.64 115.493 16.352 116.037 15.776C116.597 15.2 116.877 14.376 116.877 13.304C116.877 12.232 116.605 11.408 116.061 10.832C115.533 10.256 114.877 9.968 114.093 9.968C113.293 9.968 112.629 10.256 112.101 10.832C111.573 11.392 111.309 12.216 111.309 13.304C111.309 14.376 111.565 15.2 112.077 15.776C112.605 16.352 113.261 16.64 114.045 16.64ZM131.39 6.464C132.958 6.464 134.206 6.976 135.134 8C136.078 9.008 136.55 10.4 136.55 12.176V20H132.47V12.728C132.47 11.832 132.238 11.136 131.774 10.64C131.31 10.144 130.686 9.896 129.902 9.896C129.118 9.896 128.494 10.144 128.03 10.64C127.566 11.136 127.334 11.832 127.334 12.728V20H123.23V6.608H127.334V8.384C127.75 7.792 128.31 7.328 129.014 6.992C129.718 6.64 130.51 6.464 131.39 6.464Z" fill="#404040"/>
</svg>
