<svg width="277" height="94" viewBox="0 0 277 94" fill="none" xmlns="http://www.w3.org/2000/svg">
<g filter="url(#filter0_di_129_223)">
<rect x="4" width="269" height="86" rx="40" fill="#FFA500" shape-rendering="crispEdges"/>
<path d="M63.1147 38.64C62.7094 37.8933 62.1228 37.328 61.3548 36.944C60.6081 36.5387 59.7228 36.336 58.6988 36.336C56.9281 36.336 55.5094 36.9227 54.4427 38.096C53.3761 39.248 52.8428 40.7947 52.8428 42.736C52.8428 44.8053 53.3974 46.4267 54.5068 47.6C55.6374 48.752 57.1841 49.328 59.1468 49.328C60.4908 49.328 61.6214 48.9867 62.5388 48.304C63.4774 47.6213 64.1601 46.64 64.5868 45.36H57.6428V41.328H69.5468V46.416C69.1414 47.7813 68.4481 49.0507 67.4668 50.224C66.5068 51.3973 65.2801 52.3467 63.7868 53.072C62.2934 53.7973 60.6081 54.16 58.7308 54.16C56.5121 54.16 54.5281 53.68 52.7788 52.72C51.0508 51.7387 49.6961 50.384 48.7148 48.656C47.7548 46.928 47.2747 44.9547 47.2747 42.736C47.2747 40.5173 47.7548 38.544 48.7148 36.816C49.6961 35.0667 51.0508 33.712 52.7788 32.752C54.5068 31.7707 56.4801 31.28 58.6988 31.28C61.3868 31.28 63.6481 31.9307 65.4828 33.232C67.3388 34.5333 68.5654 36.336 69.1628 38.64H63.1147ZM89.4097 44.784C89.4097 45.296 89.3778 45.8293 89.3138 46.384H76.9298C77.0151 47.4933 77.3671 48.3467 77.9858 48.944C78.6258 49.52 79.4044 49.808 80.3218 49.808C81.6871 49.808 82.6364 49.232 83.1698 48.08H88.9938C88.6951 49.2533 88.1511 50.3093 87.3618 51.248C86.5938 52.1867 85.6231 52.9227 84.4498 53.456C83.2764 53.9893 81.9644 54.256 80.5138 54.256C78.7644 54.256 77.2071 53.8827 75.8418 53.136C74.4764 52.3893 73.4098 51.3227 72.6418 49.936C71.8738 48.5493 71.4898 46.928 71.4898 45.072C71.4898 43.216 71.8631 41.5947 72.6098 40.208C73.3778 38.8213 74.4444 37.7547 75.8098 37.008C77.1751 36.2613 78.7431 35.888 80.5138 35.888C82.2418 35.888 83.7778 36.2507 85.1218 36.976C86.4658 37.7013 87.5111 38.736 88.2578 40.08C89.0258 41.424 89.4097 42.992 89.4097 44.784ZM83.8098 43.344C83.8098 42.4053 83.4898 41.6587 82.8498 41.104C82.2098 40.5493 81.4098 40.272 80.4498 40.272C79.5324 40.272 78.7538 40.5387 78.1138 41.072C77.4951 41.6053 77.1111 42.3627 76.9618 43.344H83.8098ZM102.249 49.36V54H99.4645C97.4805 54 95.9338 53.52 94.8245 52.56C93.7152 51.5787 93.1605 49.9893 93.1605 47.792V40.688H90.9845V36.144H93.1605V31.792H98.6325V36.144H102.217V40.688H98.6325V47.856C98.6325 48.3893 98.7605 48.7733 99.0165 49.008C99.2725 49.2427 99.6992 49.36 100.297 49.36H102.249ZM119.342 54.256C117.784 54.256 116.398 53.9893 115.182 53.456C113.966 52.9227 113.006 52.1973 112.302 51.28C111.598 50.3413 111.203 49.296 111.118 48.144H116.526C116.59 48.7627 116.878 49.264 117.39 49.648C117.902 50.032 118.531 50.224 119.278 50.224C119.96 50.224 120.483 50.096 120.846 49.84C121.23 49.5627 121.422 49.2107 121.422 48.784C121.422 48.272 121.155 47.8987 120.622 47.664C120.088 47.408 119.224 47.1307 118.03 46.832C116.75 46.5333 115.683 46.224 114.83 45.904C113.976 45.5627 113.24 45.04 112.622 44.336C112.003 43.6107 111.694 42.64 111.694 41.424C111.694 40.4 111.971 39.472 112.526 38.64C113.102 37.7867 113.934 37.1147 115.022 36.624C116.131 36.1333 117.443 35.888 118.958 35.888C121.198 35.888 122.958 36.4427 124.238 37.552C125.539 38.6613 126.286 40.1333 126.478 41.968H121.422C121.336 41.3493 121.059 40.8587 120.59 40.496C120.142 40.1333 119.544 39.952 118.798 39.952C118.158 39.952 117.667 40.08 117.326 40.336C116.984 40.5707 116.814 40.9013 116.814 41.328C116.814 41.84 117.08 42.224 117.614 42.48C118.168 42.736 119.022 42.992 120.174 43.248C121.496 43.5893 122.574 43.9307 123.406 44.272C124.238 44.592 124.963 45.1253 125.582 45.872C126.222 46.5973 126.552 47.5787 126.574 48.816C126.574 49.8613 126.275 50.8 125.678 51.632C125.102 52.4427 124.259 53.0827 123.15 53.552C122.062 54.0213 120.792 54.256 119.342 54.256ZM139.874 49.36V54H137.09C135.106 54 133.559 53.52 132.45 52.56C131.34 51.5787 130.786 49.9893 130.786 47.792V40.688H128.61V36.144H130.786V31.792H136.258V36.144H139.842V40.688H136.258V47.856C136.258 48.3893 136.386 48.7733 136.642 49.008C136.898 49.2427 137.324 49.36 137.922 49.36H139.874ZM141.834 45.04C141.834 43.2053 142.175 41.5947 142.858 40.208C143.562 38.8213 144.511 37.7547 145.706 37.008C146.9 36.2613 148.234 35.888 149.706 35.888C150.964 35.888 152.063 36.144 153.002 36.656C153.962 37.168 154.698 37.84 155.21 38.672V36.144H160.682V54H155.21V51.472C154.676 52.304 153.93 52.976 152.97 53.488C152.031 54 150.932 54.256 149.674 54.256C148.223 54.256 146.9 53.8827 145.706 53.136C144.511 52.368 143.562 51.2907 142.858 49.904C142.175 48.496 141.834 46.8747 141.834 45.04ZM155.21 45.072C155.21 43.7067 154.826 42.6293 154.058 41.84C153.311 41.0507 152.394 40.656 151.306 40.656C150.218 40.656 149.29 41.0507 148.522 41.84C147.775 42.608 147.402 43.6747 147.402 45.04C147.402 46.4053 147.775 47.4933 148.522 48.304C149.29 49.0933 150.218 49.488 151.306 49.488C152.394 49.488 153.311 49.0933 154.058 48.304C154.826 47.5147 155.21 46.4373 155.21 45.072ZM170.112 39.12C170.752 38.1387 171.552 37.3707 172.512 36.816C173.472 36.24 174.539 35.952 175.712 35.952V41.744H174.208C172.843 41.744 171.819 42.0427 171.136 42.64C170.454 43.216 170.112 44.24 170.112 45.712V54H164.64V36.144H170.112V39.12ZM188.28 49.36V54H185.496C183.512 54 181.965 53.52 180.856 52.56C179.746 51.5787 179.192 49.9893 179.192 47.792V40.688H177.016V36.144H179.192V31.792H184.664V36.144H188.248V40.688H184.664V47.856C184.664 48.3893 184.792 48.7733 185.048 49.008C185.304 49.2427 185.73 49.36 186.328 49.36H188.28ZM208.16 44.784C208.16 45.296 208.128 45.8293 208.064 46.384H195.68C195.765 47.4933 196.117 48.3467 196.736 48.944C197.376 49.52 198.154 49.808 199.072 49.808C200.437 49.808 201.386 49.232 201.92 48.08H207.744C207.445 49.2533 206.901 50.3093 206.112 51.248C205.344 52.1867 204.373 52.9227 203.2 53.456C202.026 53.9893 200.714 54.256 199.264 54.256C197.514 54.256 195.957 53.8827 194.592 53.136C193.226 52.3893 192.16 51.3227 191.392 49.936C190.624 48.5493 190.24 46.928 190.24 45.072C190.24 43.216 190.613 41.5947 191.36 40.208C192.128 38.8213 193.194 37.7547 194.56 37.008C195.925 36.2613 197.493 35.888 199.264 35.888C200.992 35.888 202.528 36.2507 203.872 36.976C205.216 37.7013 206.261 38.736 207.008 40.08C207.776 41.424 208.16 42.992 208.16 44.784ZM202.56 43.344C202.56 42.4053 202.24 41.6587 201.6 41.104C200.96 40.5493 200.16 40.272 199.2 40.272C198.282 40.272 197.504 40.5387 196.864 41.072C196.245 41.6053 195.861 42.3627 195.712 43.344H202.56ZM209.959 45.04C209.959 43.2053 210.3 41.5947 210.983 40.208C211.687 38.8213 212.636 37.7547 213.831 37.008C215.025 36.2613 216.359 35.888 217.831 35.888C219.004 35.888 220.071 36.1333 221.031 36.624C222.012 37.1147 222.78 37.776 223.335 38.608V30.32H228.807V54H223.335V51.44C222.823 52.2933 222.087 52.976 221.127 53.488C220.188 54 219.089 54.256 217.831 54.256C216.359 54.256 215.025 53.8827 213.831 53.136C212.636 52.368 211.687 51.2907 210.983 49.904C210.3 48.496 209.959 46.8747 209.959 45.04ZM223.335 45.072C223.335 43.7067 222.951 42.6293 222.183 41.84C221.436 41.0507 220.519 40.656 219.431 40.656C218.343 40.656 217.415 41.0507 216.647 41.84C215.9 42.608 215.527 43.6747 215.527 45.04C215.527 46.4053 215.9 47.4933 216.647 48.304C217.415 49.0933 218.343 49.488 219.431 49.488C220.519 49.488 221.436 49.0933 222.183 48.304C222.951 47.5147 223.335 46.4373 223.335 45.072Z" fill="white"/>
</g>
<defs>
<filter id="filter0_di_129_223" x="0" y="0" width="277" height="94" filterUnits="userSpaceOnUse" color-interpolation-filters="sRGB">
<feFlood flood-opacity="0" result="BackgroundImageFix"/>
<feColorMatrix in="SourceAlpha" type="matrix" values="0 0 0 0 0 0 0 0 0 0 0 0 0 0 0 0 0 0 127 0" result="hardAlpha"/>
<feOffset dy="4"/>
<feGaussianBlur stdDeviation="2"/>
<feComposite in2="hardAlpha" operator="out"/>
<feColorMatrix type="matrix" values="0 0 0 0 0 0 0 0 0 0 0 0 0 0 0 0 0 0 0.25 0"/>
<feBlend mode="normal" in2="BackgroundImageFix" result="effect1_dropShadow_129_223"/>
<feBlend mode="normal" in="SourceGraphic" in2="effect1_dropShadow_129_223" result="shape"/>
<feColorMatrix in="SourceAlpha" type="matrix" values="0 0 0 0 0 0 0 0 0 0 0 0 0 0 0 0 0 0 127 0" result="hardAlpha"/>
<feOffset dy="4"/>
<feGaussianBlur stdDeviation="2"/>
<feComposite in2="hardAlpha" operator="arithmetic" k2="-1" k3="1"/>
<feColorMatrix type="matrix" values="0 0 0 0 0 0 0 0 0 0 0 0 0 0 0 0 0 0 0.25 0"/>
<feBlend mode="normal" in2="shape" result="effect2_innerShadow_129_223"/>
</filter>
</defs>
</svg>
