<svg width="86" height="26" viewBox="0 0 86 26" fill="none" xmlns="http://www.w3.org/2000/svg">
<path d="M12.032 7.168C12.032 8.56 11.552 9.72 10.592 10.648C9.648 11.56 8.2 12.016 6.248 12.016H3.032V19H0.848V2.272H6.248C8.136 2.272 9.568 2.728 10.544 3.64C11.536 4.552 12.032 5.728 12.032 7.168ZM6.248 10.216C7.464 10.216 8.36 9.952 8.936 9.424C9.512 8.896 9.8 8.144 9.8 7.168C9.8 5.104 8.616 4.072 6.248 4.072H3.032V10.216H6.248ZM16.9304 7.984C17.3144 7.232 17.8584 6.648 18.5624 6.232C19.2824 5.816 20.1544 5.608 21.1784 5.608V7.864H20.6024C18.1544 7.864 16.9304 9.192 16.9304 11.848V19H14.7464V5.848H16.9304V7.984ZM24.8276 3.712C24.4116 3.712 24.0596 3.568 23.7716 3.28C23.4836 2.992 23.3396 2.64 23.3396 2.224C23.3396 1.808 23.4836 1.456 23.7716 1.168C24.0596 0.879999 24.4116 0.735999 24.8276 0.735999C25.2276 0.735999 25.5636 0.879999 25.8356 1.168C26.1236 1.456 26.2676 1.808 26.2676 2.224C26.2676 2.64 26.1236 2.992 25.8356 3.28C25.5636 3.568 25.2276 3.712 24.8276 3.712ZM25.8836 5.848V19H23.6996V5.848H25.8836ZM34.5018 16.984L38.5818 5.848H40.9098L35.7498 19H33.2058L28.0458 5.848H30.3978L34.5018 16.984ZM42.2429 12.376C42.2429 11.032 42.5149 9.856 43.0589 8.848C43.6029 7.824 44.3469 7.032 45.2909 6.472C46.2509 5.912 47.3149 5.632 48.4829 5.632C49.6349 5.632 50.6349 5.88 51.4829 6.376C52.3309 6.872 52.9629 7.496 53.3789 8.248V5.848H55.5869V19H53.3789V16.552C52.9469 17.32 52.2989 17.96 51.4349 18.472C50.5869 18.968 49.5949 19.216 48.4589 19.216C47.2909 19.216 46.2349 18.928 45.2909 18.352C44.3469 17.776 43.6029 16.968 43.0589 15.928C42.5149 14.888 42.2429 13.704 42.2429 12.376ZM53.3789 12.4C53.3789 11.408 53.1789 10.544 52.7789 9.808C52.3789 9.072 51.8349 8.512 51.1469 8.128C50.4749 7.728 49.7309 7.528 48.9149 7.528C48.0989 7.528 47.3549 7.72 46.6829 8.104C46.0109 8.488 45.4749 9.048 45.0749 9.784C44.6749 10.52 44.4749 11.384 44.4749 12.376C44.4749 13.384 44.6749 14.264 45.0749 15.016C45.4749 15.752 46.0109 16.32 46.6829 16.72C47.3549 17.104 48.0989 17.296 48.9149 17.296C49.7309 17.296 50.4749 17.104 51.1469 16.72C51.8349 16.32 52.3789 15.752 52.7789 15.016C53.1789 14.264 53.3789 13.392 53.3789 12.4ZM58.4617 12.4C58.4617 11.04 58.7337 9.856 59.2777 8.848C59.8217 7.824 60.5737 7.032 61.5337 6.472C62.5097 5.912 63.6217 5.632 64.8697 5.632C66.4857 5.632 67.8137 6.024 68.8537 6.808C69.9097 7.592 70.6057 8.68 70.9417 10.072H68.5897C68.3657 9.272 67.9257 8.64 67.2697 8.176C66.6297 7.712 65.8297 7.48 64.8697 7.48C63.6217 7.48 62.6137 7.912 61.8457 8.776C61.0777 9.624 60.6937 10.832 60.6937 12.4C60.6937 13.984 61.0777 15.208 61.8457 16.072C62.6137 16.936 63.6217 17.368 64.8697 17.368C65.8297 17.368 66.6297 17.144 67.2697 16.696C67.9097 16.248 68.3497 15.608 68.5897 14.776H70.9417C70.5897 16.12 69.8857 17.2 68.8297 18.016C67.7737 18.816 66.4537 19.216 64.8697 19.216C63.6217 19.216 62.5097 18.936 61.5337 18.376C60.5737 17.816 59.8217 17.024 59.2777 16C58.7337 14.976 58.4617 13.776 58.4617 12.4ZM85.1838 5.848L77.2638 25.192H75.0078L77.5998 18.856L72.2958 5.848H74.7198L78.8478 16.504L82.9278 5.848H85.1838Z" fill="#404040"/>
</svg>
