<svg width="12" height="18" viewBox="0 0 12 18" fill="none" xmlns="http://www.w3.org/2000/svg">
<path d="M5.99999 0.5C4.52247 0.501874 3.106 1.08965 2.06123 2.13441C1.01647 3.17918 0.428693 4.59565 0.426819 6.07317H3.26015C3.26015 4.56158 4.48982 3.33333 5.99999 3.33333C7.51015 3.33333 8.73982 4.56158 8.73982 6.07317C8.73982 6.92033 8.0584 7.53517 7.01715 8.37667C6.67699 8.64314 6.35029 8.92635 6.03824 9.22525C4.6244 10.6377 4.58332 12.1379 4.58332 12.3051V13.25H7.41665L7.41523 12.3532C7.41665 12.3306 7.46198 11.8064 8.03998 11.2298C8.25248 11.0173 8.52024 10.8048 8.7979 10.581C9.90149 9.68708 11.5717 8.337 11.5717 6.07317C11.5706 4.59566 10.9833 3.17897 9.93865 2.13409C8.89403 1.0892 7.47749 0.501501 5.99999 0.5ZM4.58332 14.6667H7.41665V17.5H4.58332V14.6667Z" fill="white"/>
</svg>
