<svg width="587" height="608" viewBox="0 0 587 608" fill="none" xmlns="http://www.w3.org/2000/svg">
<path d="M496.408 495.593C500.726 493.567 505.579 492.975 510.258 493.903C512.775 494.328 515.402 495.119 517.117 496.967C518.831 498.815 519.147 502.184 517.177 503.801C515.911 504.659 514.383 505.047 512.861 504.895C509.213 504.895 505.139 504.214 502.208 506.415C500.542 507.631 499.424 509.759 497.43 510.38C496.431 510.613 495.383 510.514 494.445 510.097C493.508 509.68 492.733 508.968 492.237 508.069C491.286 506.231 491.077 504.098 491.654 502.111C491.888 500.731 492.439 499.424 493.264 498.293C494.089 497.162 495.165 496.237 496.408 495.593Z" fill="#EBEBEB"/>
<path d="M486.741 476.952C489.319 480.6 494.329 479.384 496.651 477.158C498.974 474.933 499.959 471.662 500.859 468.549C502.901 461.46 504.957 453.957 503.437 446.783C503.072 444.59 502.108 442.54 500.652 440.861C499.917 440.033 498.978 439.413 497.927 439.063C496.877 438.713 495.754 438.645 494.669 438.867C492.14 439.535 490.571 442.016 489.44 444.363C486.097 451.315 484.344 458.925 484.309 466.64C484.309 470.227 484.722 473.936 486.741 476.952Z" fill="#EBEBEB"/>
<path d="M479.664 482.229C480.991 480.5 481.875 478.472 482.239 476.323C482.604 474.175 482.438 471.969 481.755 469.899C480.34 465.767 477.816 462.103 474.459 459.308C470.647 455.908 466.206 453.289 461.387 451.598C459.52 450.844 457.513 450.5 455.502 450.589C454.498 450.65 453.524 450.954 452.664 451.475C451.804 451.996 451.083 452.719 450.565 453.58C449.191 456.207 450.565 459.393 451.939 461.983C454.462 466.56 457.336 470.934 460.536 475.067C463.114 478.387 466.057 481.658 469.984 483.153C473.912 484.649 477.986 484.479 480.065 481.755" fill="#EBEBEB"/>
<path d="M486.571 532.486C486.703 531.94 486.78 531.382 486.802 530.82C486.923 529.604 487.069 528.072 487.252 526.248C487.473 523.998 487.814 521.762 488.273 519.548C488.874 516.853 489.687 514.21 490.705 511.644C491.705 509.081 493.064 506.674 494.742 504.494C496.108 502.718 497.853 501.268 499.849 500.25C501.202 499.584 502.65 499.133 504.142 498.913C504.704 498.892 505.263 498.811 505.808 498.669C505.246 498.611 504.679 498.611 504.117 498.669C502.561 498.805 501.042 499.217 499.63 499.885C497.534 500.881 495.695 502.345 494.256 504.166C492.503 506.374 491.093 508.833 490.073 511.462C489.027 514.064 488.214 516.754 487.641 519.499C487.203 521.736 486.907 523.999 486.753 526.273C486.607 528.218 486.546 529.787 486.522 530.869C486.48 531.408 486.497 531.951 486.571 532.486Z" fill="#E0E0E0"/>
<path d="M486.887 528.96C486.918 528.702 486.918 528.44 486.887 528.182V525.969C486.887 524.035 486.887 521.251 486.984 517.809C487.154 510.927 487.75 503.509 488.893 493.064C489.975 483.238 491.435 471.808 492.967 464.378C493.295 462.688 493.635 461.168 493.939 459.83C494.243 458.493 494.499 457.398 494.742 456.413C494.985 455.428 495.119 454.82 495.265 454.249C495.34 454.004 495.385 453.751 495.399 453.495C495.276 453.72 495.185 453.962 495.131 454.212C494.961 454.772 494.742 455.428 494.487 456.34C494.231 457.252 493.903 458.408 493.563 459.745C493.222 461.083 492.857 462.591 492.492 464.269C490.591 473.063 489.162 481.952 488.212 490.899C486.996 501.369 486.546 510.902 486.498 517.797C486.498 521.251 486.498 524.047 486.619 525.969C486.619 526.881 486.716 527.61 486.753 528.194C486.763 528.454 486.808 528.712 486.887 528.96Z" fill="#E0E0E0"/>
<path d="M486.935 510.586C486.996 509.817 486.996 509.045 486.935 508.276C486.85 506.78 486.643 504.628 486.23 501.989C485.719 498.901 485.037 495.845 484.187 492.833C483.188 489.129 481.907 485.507 480.357 481.998C477.678 475.532 473.846 469.607 469.048 464.512C468.218 463.645 467.332 462.832 466.397 462.08C465.996 461.727 465.631 461.387 465.266 461.119L464.245 460.414C463.624 459.959 462.97 459.552 462.287 459.198C464.538 460.965 466.675 462.874 468.683 464.913C473.298 470.06 476.999 475.957 479.627 482.351C481.145 485.836 482.429 489.419 483.47 493.076C484.351 496.06 485.078 499.088 485.646 502.147C486.133 504.762 486.4 506.89 486.571 508.361C486.637 509.111 486.759 509.855 486.935 510.586Z" fill="#E0E0E0"/>
<path d="M519.621 149.398L453.617 169.255C452.077 169.713 450.418 169.543 449.004 168.782C447.589 168.021 446.532 166.731 446.066 165.194L419.314 76.2554C418.856 74.7154 419.026 73.0568 419.787 71.6419C420.548 70.2269 421.838 69.1707 423.375 68.704L469.583 54.8294L502.743 72.0845L523.732 141.846C524.188 143.393 524.011 145.057 523.24 146.473C522.469 147.889 521.168 148.941 519.621 149.398Z" fill="#E0E0E0"/>
<path d="M469.462 54.6106L474.788 72.2912C475.099 73.3302 475.613 74.2975 476.299 75.138C476.985 75.9784 477.83 76.6754 478.785 77.1893C479.74 77.7031 480.787 78.0236 481.867 78.1325C482.946 78.2414 484.036 78.1366 485.075 77.824L502.695 72.0966L469.462 54.6106Z" fill="#EBEBEB"/>
<path d="M504.434 134.818C504.414 134.744 504.389 134.67 504.361 134.599L504.154 134.003C503.984 133.444 503.74 132.666 503.424 131.668C502.792 129.601 501.868 126.634 500.7 122.865C498.39 115.289 495.095 104.503 491.143 91.577L491.483 91.7594L446.491 105.342C446.491 105.427 446.893 104.6 446.71 104.953V105.026V105.123L446.771 105.306L446.88 105.67L447.099 106.412L447.549 107.884L448.425 110.826L450.164 116.602L453.52 127.789C455.696 135.085 457.751 141.944 459.6 148.267L459.259 148.084L491.836 138.429L501.053 135.73L503.485 135.025L504.117 134.854C504.194 134.843 504.272 134.843 504.348 134.854L504.166 134.927L503.558 135.122L501.187 135.864L492.152 138.624L459.478 148.595L459.211 148.68L459.125 148.413C457.216 142.09 455.149 135.231 452.948 127.96C451.854 124.328 450.727 120.599 449.568 116.772L447.829 110.996L446.953 108.054L446.503 106.582L446.284 105.841L446.175 105.476L446.114 105.293V105.196V105.123C445.92 105.476 446.37 104.637 446.321 104.722L491.313 91.2243L491.58 91.1392L491.653 91.4067C495.52 104.442 498.731 115.301 500.992 122.938C502.099 126.695 502.962 129.662 503.57 131.729L504.227 134.028L504.385 134.611C504.434 134.757 504.446 134.818 504.434 134.818Z" fill="white"/>
<path d="M481.646 142.272C481.475 142.272 478.423 132.666 474.836 120.712C471.249 108.759 468.452 99.0067 468.622 98.9581C468.793 98.9094 471.833 108.564 475.432 120.53C479.031 132.495 481.816 142.175 481.646 142.272Z" fill="white"/>
<path d="M501.078 124.251C501.078 124.409 491.045 127.595 478.569 131.352C466.093 135.11 455.915 138.016 455.867 137.846C455.818 137.676 465.899 134.502 478.387 130.744C490.875 126.987 501.017 124.032 501.078 124.251Z" fill="white"/>
<path d="M498.232 113.088C498.232 113.258 488.2 116.432 475.724 120.189C463.248 123.947 453.082 126.853 453.021 126.683C452.96 126.513 463.053 123.339 475.542 119.581C488.03 115.824 498.232 112.881 498.232 113.088Z" fill="white"/>
<path d="M494.584 102.144C494.584 102.314 484.637 105.464 472.246 109.197C459.855 112.93 449.774 115.812 449.726 115.642C449.677 115.471 459.673 112.31 472.064 108.589C484.455 104.868 494.584 101.937 494.584 102.144Z" fill="white"/>
<path d="M37.368 240.902L3.32004 234.822C2.5313 234.674 1.833 234.22 1.37741 233.56C0.921826 232.899 0.745913 232.085 0.888037 231.295L9.09604 185.489C9.16775 185.097 9.31587 184.724 9.53194 184.39C9.748 184.056 10.0278 183.768 10.3553 183.542C10.6828 183.316 11.0516 183.157 11.4406 183.074C11.8296 182.99 12.2312 182.985 12.6224 183.057L36.4196 187.264L47.3636 202.5L40.9188 238.433C40.8499 238.83 40.7031 239.208 40.4868 239.547C40.2706 239.887 39.9892 240.179 39.6589 240.409C39.3286 240.639 38.9561 240.8 38.5629 240.885C38.1696 240.97 37.7635 240.975 37.368 240.902Z" fill="#E0E0E0"/>
<path d="M36.4317 187.167L34.8022 196.275C34.697 196.814 34.7003 197.369 34.8121 197.907C34.9239 198.445 35.1418 198.956 35.4532 199.409C35.7646 199.861 36.1631 200.248 36.6255 200.545C37.0879 200.842 37.6049 201.044 38.1462 201.139L47.327 202.573L36.4317 187.167Z" fill="#EBEBEB"/>
<path d="M33.8781 230.931C33.8663 230.785 33.8663 230.638 33.8781 230.493L34.0605 229.277C34.2429 228.158 34.4982 226.626 34.8144 224.705C35.4832 220.753 36.4317 215.22 37.5625 208.593L37.7814 208.909L14.6288 204.774L14.9936 204.531V204.604V204.701V204.896L14.9206 205.273L14.7869 206.027C14.6896 206.538 14.6045 207.036 14.5193 207.535C14.3369 208.544 14.1545 209.541 13.9721 210.514C13.6195 212.484 13.279 214.405 12.9385 216.278C12.2576 220.023 11.6131 223.574 11.0173 226.808L10.7984 226.492L27.4941 229.629L32.2243 230.554L33.4403 230.809L33.8902 230.918H33.4889L32.2729 230.736L27.5792 229.958L10.616 227.052H10.3363V226.772C10.92 223.513 11.5523 219.974 12.1968 216.229C12.5373 214.356 12.8777 212.435 13.2304 210.465C13.4006 209.48 13.583 208.495 13.7533 207.486C13.8505 206.988 13.9357 206.489 14.0329 205.978L14.1667 205.224L14.2275 204.835V204.653V204.556V204.483L14.5923 204.227L37.7814 208.435H38.0489V208.702C36.8329 215.378 35.7385 220.959 34.9968 224.936C34.632 226.82 34.328 228.328 34.1213 229.423C34.024 229.897 33.9389 230.274 33.8781 230.639C33.8873 230.736 33.8873 230.833 33.8781 230.931Z" fill="white"/>
<path d="M22.01 229.082C22.3649 225.317 22.9292 221.574 23.7002 217.871C24.2666 214.131 25.0379 210.424 26.0107 206.769C25.6557 210.534 25.0914 214.277 24.3204 217.98C23.7612 221.722 22.9898 225.428 22.01 229.082Z" fill="white"/>
<path d="M34.7658 225.446C30.8368 225.07 26.9316 224.478 23.0679 223.671C19.1678 223.071 15.3033 222.259 11.4916 221.239C15.4197 221.622 19.3246 222.215 23.1895 223.014C27.0883 223.621 30.9524 224.433 34.7658 225.446Z" fill="white"/>
<path d="M36.0547 219.816C32.1274 219.427 28.2228 218.834 24.3568 218.041C20.4534 217.437 16.5851 216.625 12.7683 215.609C16.6967 215.99 20.6016 216.583 24.4662 217.384C28.3709 217.981 32.2396 218.793 36.0547 219.816Z" fill="white"/>
<path d="M36.8938 214.089C32.9981 213.715 29.1256 213.131 25.2932 212.338C21.4193 211.726 17.5798 210.914 13.7898 209.906C17.6904 210.272 21.5675 210.857 25.4026 211.657C29.2739 212.261 33.1098 213.073 36.8938 214.089Z" fill="white"/>
<path d="M161.145 129.711L113.976 146.005C112.876 146.385 111.671 146.313 110.624 145.805C109.577 145.296 108.776 144.393 108.395 143.293L86.5065 79.7453C86.1279 78.6533 86.1952 77.4561 86.6937 76.4135C87.1923 75.3708 88.0819 74.5668 89.1696 74.176L122.148 62.7942L146.65 74.2976L163.868 124.154C164.244 125.252 164.168 126.454 163.657 127.496C163.146 128.538 162.242 129.335 161.145 129.711Z" fill="#F9AC07"/>
<path d="M122.099 62.624L126.464 75.2461C126.981 76.7452 128.072 77.978 129.497 78.6734C130.922 79.3688 132.565 79.4701 134.064 78.9549L146.65 74.2854L122.099 62.624Z" fill="#F9AC07"/>
<g opacity="0.2">
<path d="M122.099 62.624L126.464 75.2461C126.981 76.7452 128.072 77.978 129.497 78.6734C130.922 79.3688 132.565 79.4701 134.064 78.9549L146.65 74.2854L122.099 62.624Z" fill="black"/>
</g>
<path d="M149.738 119.606C149.645 119.417 149.564 119.222 149.495 119.022C149.349 118.609 149.143 118.049 148.887 117.356L146.65 111.069C144.729 105.634 142.029 97.961 138.782 88.7437L139.135 88.9139L106.984 100.065C106.984 100.162 107.349 99.3107 107.178 99.6755V99.8093L107.264 100.077L107.446 100.6L107.811 101.658L108.54 103.749C109.015 105.148 109.489 106.522 109.963 107.884C110.899 110.607 111.824 113.283 112.711 115.885C114.499 121.077 116.189 125.99 117.733 130.477L117.393 130.307L140.728 122.573L147.343 120.384L149.106 119.8L149.738 119.618C149.559 119.71 149.372 119.788 149.179 119.849L147.489 120.457L141.008 122.816L117.624 130.975L117.369 131.073L117.283 130.805C115.715 126.294 114 121.393 112.201 116.213L109.452 108.224C108.978 106.862 108.504 105.476 108.03 104.09L107.3 101.998L106.935 100.94L106.753 100.417L106.668 100.15V100.016C106.498 100.369 106.911 99.5174 106.874 99.6026L139.05 88.5369L139.317 88.4518L139.402 88.7072C142.552 98.0217 145.191 105.731 147.051 111.276L149.143 117.551C149.362 118.244 149.544 118.767 149.678 119.192C149.811 119.618 149.751 119.618 149.738 119.606Z" fill="white"/>
<path d="M133.432 125.637C133.274 125.698 130.745 118.815 127.79 110.267C124.835 101.718 122.573 94.7507 122.743 94.6899C122.914 94.6291 125.431 101.512 128.386 110.06C131.34 118.609 133.639 125.576 133.432 125.637Z" fill="white"/>
<path d="M146.99 112.067C146.99 112.225 139.865 114.863 130.951 117.94C122.038 121.016 114.754 123.388 114.693 123.217C114.633 123.047 121.819 120.42 130.745 117.344C139.67 114.268 146.942 111.872 146.99 112.067Z" fill="white"/>
<path d="M144.631 104.053C144.631 104.211 137.506 106.85 128.592 109.926C119.679 113.003 112.395 115.374 112.334 115.204C112.274 115.034 119.46 112.407 128.386 109.331C137.311 106.254 144.583 103.883 144.631 104.053Z" fill="white"/>
<path d="M141.664 96.2464C141.664 96.4045 134.587 99.0189 125.747 102.071C116.906 105.123 109.671 107.482 109.61 107.312C109.55 107.142 116.688 104.54 125.54 101.475C134.393 98.4109 141.603 96.064 141.664 96.2464Z" fill="white"/>
<path d="M495.715 413.635L470.994 426.658C470.709 426.812 470.396 426.907 470.073 426.938C469.751 426.969 469.426 426.936 469.116 426.839C468.807 426.743 468.52 426.586 468.273 426.377C468.025 426.169 467.821 425.913 467.674 425.624L450.127 392.318C449.973 392.034 449.877 391.722 449.845 391.4C449.813 391.078 449.845 390.753 449.941 390.444C450.036 390.135 450.191 389.848 450.399 389.599C450.606 389.351 450.861 389.147 451.148 388.998L468.44 379.891L483.032 384.183L496.797 410.315C496.949 410.603 497.042 410.918 497.069 411.243C497.097 411.567 497.059 411.894 496.958 412.204C496.858 412.513 496.695 412.8 496.482 413.045C496.268 413.291 496.007 413.491 495.715 413.635Z" fill="#455A64"/>
<path d="M468.403 379.805L471.893 386.42C472.097 386.811 472.376 387.157 472.714 387.439C473.052 387.721 473.442 387.934 473.862 388.065C474.282 388.196 474.724 388.243 475.163 388.203C475.601 388.163 476.027 388.036 476.417 387.831L482.983 384.183L468.403 379.805Z" fill="#E0E0E0"/>
<path d="M488.504 409.002C488.248 408.611 488.017 408.205 487.811 407.786L485.999 404.502L479.712 392.865L480.089 392.987L463.235 401.912L463.369 401.487V401.56L463.442 401.693L463.588 401.973L463.88 402.52L464.451 403.627L465.595 405.791L467.795 409.987L471.808 417.659L471.431 417.55L483.591 411.275L487.093 409.524C487.908 409.111 488.309 408.904 488.382 408.904C488.022 409.154 487.644 409.377 487.251 409.573L483.883 411.434L471.638 418.036L471.407 418.17L471.273 417.927C470.057 415.556 468.647 412.99 467.212 410.266C466.482 408.904 465.753 407.506 464.987 406.083L463.843 403.919L463.272 402.824L462.98 402.265L462.834 401.997L462.761 401.851V401.779C462.64 402.155 462.919 401.256 462.895 401.353L479.785 392.5L480.028 392.379L480.15 392.622C482.655 397.486 484.747 401.584 486.23 404.527C486.911 405.901 487.446 406.959 487.884 407.822C488.116 408.201 488.323 408.595 488.504 409.002Z" fill="white"/>
<path d="M480.053 413.72C478.345 411.177 476.822 408.515 475.493 405.755C473.971 403.1 472.638 400.341 471.504 397.498C473.196 400.049 474.716 402.71 476.052 405.463C477.563 408.126 478.9 410.884 480.053 413.72Z" fill="white"/>
<path d="M486.376 405.062C483.712 406.826 480.934 408.411 478.059 409.804C475.28 411.38 472.405 412.777 469.449 413.987C472.112 412.221 474.89 410.636 477.767 409.245C480.541 407.663 483.417 406.265 486.376 405.062Z" fill="white"/>
<path d="M484.394 400.83C481.726 402.585 478.948 404.165 476.076 405.56C473.303 407.159 470.427 408.573 467.467 409.792C472.904 406.446 478.559 403.468 484.394 400.879V400.83Z" fill="white"/>
<path d="M482.083 396.756C476.688 400.083 471.073 403.04 465.278 405.609C470.678 402.289 476.292 399.332 482.083 396.756Z" fill="white"/>
<path d="M540.014 139.001H69.288V394.239H540.014V139.001Z" fill="#F5F5F5"/>
<path d="M540.014 139.001H69.288V160.5H540.014V139.001Z" fill="#263238"/>
<path d="M80.4265 152.705C81.8972 152.705 83.0895 151.513 83.0895 150.042C83.0895 148.571 81.8972 147.379 80.4265 147.379C78.9557 147.379 77.7634 148.571 77.7634 150.042C77.7634 151.513 78.9557 152.705 80.4265 152.705Z" fill="#FAFAFA"/>
<path d="M90.118 152.705C91.5887 152.705 92.781 151.513 92.781 150.042C92.781 148.571 91.5887 147.379 90.118 147.379C88.6472 147.379 87.455 148.571 87.455 150.042C87.455 151.513 88.6472 152.705 90.118 152.705Z" fill="#FAFAFA"/>
<path d="M99.8095 152.705C101.28 152.705 102.473 151.513 102.473 150.042C102.473 148.571 101.28 147.379 99.8095 147.379C98.3388 147.379 97.1465 148.571 97.1465 150.042C97.1465 151.513 98.3388 152.705 99.8095 152.705Z" fill="#FAFAFA"/>
<path d="M85.7039 197.442H68.5826V394.227H85.7039V197.442Z" fill="#455A64"/>
<path d="M68.5826 189.866V206.988L539.807 206.988V189.866L68.5826 189.866Z" fill="#455A64"/>
<path d="M85.704 383.271C85.5337 383.271 85.3878 339.981 85.3878 286.575C85.3878 233.168 85.5337 189.866 85.704 189.866C85.8742 189.866 86.0201 233.156 86.0201 286.575C86.0201 339.994 85.8864 383.271 85.704 383.271Z" fill="#E0E0E0"/>
<path d="M153.022 394.227C152.851 394.227 152.706 348.481 152.706 292.083C152.706 235.685 152.851 189.939 153.022 189.939C153.192 189.939 153.338 235.685 153.338 292.083C153.338 348.481 153.192 394.227 153.022 394.227Z" fill="#E0E0E0"/>
<path d="M224.425 394.227C224.255 394.227 224.109 348.627 224.109 292.387C224.109 236.147 224.255 190.547 224.425 190.547C224.596 190.547 224.741 236.135 224.741 292.387C224.741 348.639 224.632 394.227 224.425 394.227Z" fill="#E0E0E0"/>
<path d="M294.151 394.227C293.968 394.227 293.834 348.627 293.834 292.387C293.834 236.147 293.968 190.547 294.151 190.547C294.333 190.547 294.467 236.135 294.467 292.387C294.467 348.639 294.321 394.227 294.151 394.227Z" fill="#E0E0E0"/>
<path d="M365.506 394.227C365.335 394.227 365.189 348.481 365.189 292.083C365.189 235.685 365.335 189.939 365.506 189.939C365.676 189.939 365.822 235.685 365.822 292.083C365.822 348.481 365.688 394.227 365.506 394.227Z" fill="#E0E0E0"/>
<path d="M436.873 394.227C436.69 394.227 436.556 348.481 436.556 292.083C436.556 235.685 436.69 189.939 436.873 189.939C437.055 189.939 437.189 235.685 437.189 292.083C437.189 348.481 437.043 394.227 436.873 394.227Z" fill="#E0E0E0"/>
<path d="M508.227 394.227C508.057 394.227 507.911 348.627 507.911 292.387C507.911 236.147 508.057 190.547 508.227 190.547C508.398 190.547 508.544 236.135 508.544 292.387C508.544 348.639 508.41 394.227 508.227 394.227Z" fill="#E0E0E0"/>
<path d="M537.205 222.613C537.205 222.783 432.3 222.929 302.918 222.929C173.536 222.929 68.5948 222.783 68.5948 222.613C68.5948 222.443 173.487 222.285 302.918 222.285C432.349 222.285 537.205 222.431 537.205 222.613Z" fill="#E0E0E0"/>
<path d="M537.205 206.988C537.205 207.17 432.3 207.304 302.918 207.304C173.536 207.304 68.5948 207.17 68.5948 206.988C68.5948 206.805 173.487 206.671 302.918 206.671C432.349 206.671 537.205 206.817 537.205 206.988Z" fill="#E0E0E0"/>
<path d="M537.205 239.053C537.205 239.236 432.3 239.37 302.918 239.37C173.536 239.37 68.5948 239.236 68.5948 239.053C68.5948 238.871 173.487 238.737 302.918 238.737C432.349 238.737 537.205 238.883 537.205 239.053Z" fill="#E0E0E0"/>
<path d="M537.205 255.506C537.205 255.676 432.3 255.822 302.918 255.822C173.536 255.822 68.5948 255.676 68.5948 255.506C68.5948 255.336 173.487 255.19 302.918 255.19C432.349 255.19 537.205 255.36 537.205 255.506Z" fill="#E0E0E0"/>
<path d="M537.205 271.958C537.205 272.129 432.3 272.275 302.918 272.275C173.536 272.275 68.5948 272.129 68.5948 271.958C68.5948 271.788 173.487 271.642 302.918 271.642C432.349 271.642 537.205 271.776 537.205 271.958Z" fill="#E0E0E0"/>
<path d="M537.205 288.399C537.205 288.581 432.3 288.715 302.918 288.715C173.536 288.715 68.5948 288.581 68.5948 288.399C68.5948 288.216 173.487 288.083 302.918 288.083C432.349 288.083 537.205 288.192 537.205 288.399Z" fill="#E0E0E0"/>
<path d="M537.205 304.851C537.205 305.021 432.3 305.167 302.918 305.167C173.536 305.167 68.5948 305.021 68.5948 304.851C68.5948 304.681 173.487 304.535 302.918 304.535C432.349 304.535 537.205 304.681 537.205 304.851Z" fill="#E0E0E0"/>
<path d="M537.205 321.304C537.205 321.474 432.3 321.62 302.918 321.62C173.536 321.62 68.5948 321.474 68.5948 321.304C68.5948 321.133 173.487 320.988 302.918 320.988C432.349 320.988 537.205 321.121 537.205 321.304Z" fill="#E0E0E0"/>
<path d="M537.205 337.744C537.205 337.926 432.3 338.072 302.918 338.072C173.536 338.072 68.5948 337.926 68.5948 337.744C68.5948 337.562 173.487 337.428 302.918 337.428C432.349 337.428 537.205 337.574 537.205 337.744Z" fill="#E0E0E0"/>
<path d="M537.205 354.196C537.205 354.379 432.3 354.513 302.918 354.513C173.536 354.513 68.5948 354.379 68.5948 354.196C68.5948 354.014 173.487 353.88 302.918 353.88C432.349 353.88 537.205 354.026 537.205 354.196Z" fill="#E0E0E0"/>
<path d="M537.205 370.649C537.205 370.819 432.3 370.965 302.918 370.965C173.536 370.965 68.5948 370.819 68.5948 370.649C68.5948 370.479 173.487 370.333 302.918 370.333C432.349 370.333 537.205 370.479 537.205 370.649Z" fill="#E0E0E0"/>
<path d="M537.205 387.101C537.205 387.272 432.3 387.418 302.918 387.418C173.536 387.418 68.5948 387.272 68.5948 387.101C68.5948 386.931 173.487 386.785 302.918 386.785C432.349 386.785 537.205 386.919 537.205 387.101Z" fill="#E0E0E0"/>
<path d="M539.795 206.988H85.704V239.053H539.795V206.988Z" fill="#F9AC07"/>
<path d="M443.196 220.789C443.196 220.959 389.765 221.105 323.858 221.105C257.95 221.105 204.519 220.959 204.519 220.789C204.519 220.619 257.938 220.473 323.858 220.473C389.777 220.473 443.196 220.607 443.196 220.789Z" fill="#FAFAFA"/>
<path d="M465.801 229.921C465.801 230.092 398.982 230.237 316.574 230.237C234.165 230.237 167.322 230.092 167.322 229.921C167.322 229.751 234.129 229.605 316.574 229.605C399.019 229.605 465.801 229.739 465.801 229.921Z" fill="#FAFAFA"/>
<path d="M294.151 255.506H153.022V271.958H294.151V255.506Z" fill="#F9AC07"/>
<path d="M294.151 270.134H153.022V339.556H294.151V270.134Z" fill="#EBEBEB"/>
<path d="M212.727 279.449C212.727 279.631 201.078 279.765 186.717 279.765C172.356 279.765 160.707 279.631 160.707 279.449C160.707 279.267 172.356 279.133 186.717 279.133C201.078 279.133 212.727 279.279 212.727 279.449Z" fill="#263238"/>
<path d="M191.958 297.507C191.958 297.689 184.954 297.823 176.332 297.823C167.711 297.823 160.707 297.689 160.707 297.507C160.707 297.324 167.699 297.19 176.332 297.19C184.966 297.19 191.958 297.336 191.958 297.507Z" fill="#263238"/>
<path d="M217.749 310.664C217.749 310.834 204.981 310.98 189.234 310.98C173.487 310.98 160.707 310.834 160.707 310.664C160.707 310.493 173.475 310.348 189.234 310.348C204.994 310.348 217.749 310.481 217.749 310.664Z" fill="#263238"/>
<path d="M191.958 284.362C191.958 284.532 184.954 284.678 176.332 284.678C167.711 284.678 160.707 284.532 160.707 284.362C160.707 284.191 167.699 284.045 176.332 284.045C184.966 284.045 191.958 284.179 191.958 284.362Z" fill="#263238"/>
<path d="M288.91 279.449C286.158 279.769 283.385 279.875 280.617 279.765C277.848 279.875 275.075 279.769 272.323 279.449C275.076 279.136 277.848 279.03 280.617 279.133C283.385 279.03 286.157 279.136 288.91 279.449Z" fill="#263238"/>
<path d="M288.91 294.272C286.157 294.585 283.385 294.691 280.617 294.588C277.848 294.691 275.076 294.585 272.323 294.272C275.075 293.952 277.848 293.846 280.617 293.956C283.385 293.846 286.158 293.952 288.91 294.272Z" fill="#263238"/>
<path d="M288.91 310.664C286.157 310.977 283.385 311.082 280.617 310.98C277.848 311.082 275.076 310.977 272.323 310.664C275.075 310.343 277.848 310.238 280.617 310.348C283.385 310.238 286.158 310.343 288.91 310.664Z" fill="#263238"/>
<path d="M287.998 330.752C287.998 330.922 282.124 331.068 274.877 331.068C267.63 331.068 261.769 330.922 261.769 330.752C261.769 330.582 267.63 330.436 274.877 330.436C282.124 330.436 287.998 330.582 287.998 330.752Z" fill="#263238"/>
<path d="M224.425 338.352C224.255 338.352 224.109 323.347 224.109 304.851C224.109 286.356 224.255 271.35 224.425 271.35C224.596 271.35 224.741 286.344 224.741 304.851C224.741 323.359 224.632 338.352 224.425 338.352Z" fill="#E0E0E0"/>
<path d="M292.971 319.808C292.971 319.978 277.37 320.124 258.121 320.124C238.871 320.124 223.282 319.978 223.282 319.808C223.282 319.638 238.871 319.492 258.121 319.492C277.37 319.492 292.971 319.662 292.971 319.808Z" fill="#E0E0E0"/>
<path d="M294.151 370.041H153.022V387.101H294.151V370.041Z" fill="#F5F5F5"/>
<path d="M294.151 354.197H152.791V370.649H294.151V354.197Z" fill="#F9AC07"/>
<path d="M218.941 379.392C218.941 379.574 205.626 379.708 189.21 379.708C172.794 379.708 159.479 379.574 159.479 379.392C159.479 379.21 172.782 379.076 189.21 379.076C205.638 379.076 218.941 379.234 218.941 379.392Z" fill="#263238"/>
<path d="M287.998 378.565C287.998 378.735 282.124 378.881 274.877 378.881C267.63 378.881 261.769 378.735 261.769 378.565C261.769 378.395 267.63 378.249 274.877 378.249C282.124 378.249 287.998 378.395 287.998 378.565Z" fill="#263238"/>
<path d="M381.155 312.488H368.947V353.905H381.155V312.488Z" fill="#F9AC07"/>
<path d="M455.331 320.003H443.123V353.905H455.331V320.003Z" fill="#F9AC07"/>
<path d="M504.786 329.475H492.578V353.905H504.786V329.475Z" fill="#263238"/>
<path d="M405.889 287.085H393.68V353.905H405.889V287.085Z" fill="#455A64"/>
<path d="M430.61 287.085H418.402V353.905H430.61V287.085Z" fill="#263238"/>
<path d="M480.053 271.654H467.844V353.905H480.053V271.654Z" fill="#455A64"/>
<path d="M92.7933 168.015H81.9587V178.849H92.7933V168.015Z" fill="#F9AC07"/>
<path d="M99.0921 183.616H87.0537V171.565H99.0921V183.616ZM88.2697 182.4H97.8761V172.781H88.2697V182.4Z" fill="#F9AC07"/>
<path d="M125.078 170.884H114.961V181.002H125.078V170.884Z" fill="#E0E0E0"/>
<path d="M141.518 170.884H131.401V181.002H141.518V170.884Z" fill="#E0E0E0"/>
<path d="M157.959 170.884H147.842V181.002H157.959V170.884Z" fill="#E0E0E0"/>
<path d="M174.411 170.884H164.294V181.002H174.411V170.884Z" fill="#E0E0E0"/>
<path d="M190.852 170.884H180.734V181.002H190.852V170.884Z" fill="#E0E0E0"/>
<path d="M312.841 170.787H205.906V181.111H312.841V170.787Z" fill="#E0E0E0"/>
<path d="M434.453 170.787H327.518V181.111H434.453V170.787Z" fill="#E0E0E0"/>
<path d="M539.807 170.787H447.61V181.111H539.807V170.787Z" fill="#E0E0E0"/>
<path d="M540.014 394.227C540.014 392.306 539.916 295.999 539.771 139.001L540.014 139.232L69.3245 139.317L69.6406 139.001C69.6406 229.18 69.6406 315.516 69.6406 394.227L69.3488 393.935L540.075 394.227L69.3488 394.531H68.984V394.227C68.984 315.516 68.984 229.18 68.984 139.001V138.685H69.3366L540.026 138.758H540.269V139.001C540.099 295.999 540.014 392.318 540.014 394.227Z" fill="#263238"/>
<path d="M508.653 118.378H37.9274V373.616H508.653V118.378Z" fill="#F5F5F5"/>
<path d="M508.653 118.378H37.9274V139.876H508.653V118.378Z" fill="#263238"/>
<path d="M49.0781 132.082C50.5488 132.082 51.7411 130.89 51.7411 129.419C51.7411 127.948 50.5488 126.756 49.0781 126.756C47.6073 126.756 46.415 127.948 46.415 129.419C46.415 130.89 47.6073 132.082 49.0781 132.082Z" fill="#FAFAFA"/>
<path d="M58.7696 132.082C60.2404 132.082 61.4326 130.89 61.4326 129.419C61.4326 127.948 60.2404 126.756 58.7696 126.756C57.2988 126.756 56.1066 127.948 56.1066 129.419C56.1066 130.89 57.2988 132.082 58.7696 132.082Z" fill="#FAFAFA"/>
<path d="M68.4611 132.082C69.9319 132.082 71.1242 130.89 71.1242 129.419C71.1242 127.948 69.9319 126.756 68.4611 126.756C66.9904 126.756 65.7981 127.948 65.7981 129.419C65.7981 130.89 66.9904 132.082 68.4611 132.082Z" fill="#FAFAFA"/>
<path d="M54.3555 176.819H37.2343V373.604H54.3555V176.819Z" fill="#455A64"/>
<path d="M37.222 169.243V186.364L508.446 186.364V169.243L37.222 169.243Z" fill="#455A64"/>
<path d="M54.392 362.648C54.2217 362.648 54.0758 319.346 54.0758 265.951C54.0758 212.557 54.2217 169.243 54.392 169.243C54.5622 169.243 54.7081 212.532 54.7081 265.951C54.7081 319.37 54.5257 362.648 54.392 362.648Z" fill="#E0E0E0"/>
<path d="M121.673 373.604C121.503 373.604 121.357 327.858 121.357 271.46C121.357 215.062 121.503 169.316 121.673 169.316C121.843 169.316 121.989 215.062 121.989 271.46C121.989 327.858 121.843 373.604 121.673 373.604Z" fill="#E0E0E0"/>
<path d="M193.077 373.604C192.907 373.604 192.761 328.004 192.761 271.764C192.761 215.524 192.907 169.924 193.077 169.924C193.247 169.924 193.393 215.512 193.393 271.764C193.393 328.016 193.259 373.604 193.077 373.604Z" fill="#E0E0E0"/>
<path d="M262.802 373.604C262.62 373.604 262.486 328.004 262.486 271.764C262.486 215.524 262.62 169.924 262.802 169.924C262.985 169.924 263.118 215.512 263.118 271.764C263.118 328.016 262.972 373.604 262.802 373.604Z" fill="#E0E0E0"/>
<path d="M334.157 373.604C333.987 373.604 333.841 327.858 333.841 271.46C333.841 215.062 333.987 169.316 334.157 169.316C334.327 169.316 334.473 215.062 334.473 271.46C334.473 327.858 334.327 373.604 334.157 373.604Z" fill="#E0E0E0"/>
<path d="M405.524 373.604C405.342 373.604 405.196 327.858 405.196 271.46C405.196 215.062 405.342 169.316 405.524 169.316C405.707 169.316 405.84 215.062 405.84 271.46C405.84 327.858 405.694 373.604 405.524 373.604Z" fill="#E0E0E0"/>
<path d="M476.879 373.604C476.709 373.604 476.563 328.004 476.563 271.764C476.563 215.524 476.709 169.924 476.879 169.924C477.049 169.924 477.195 215.512 477.195 271.764C477.195 328.016 477.049 373.604 476.879 373.604Z" fill="#E0E0E0"/>
<path d="M505.856 201.978C505.856 202.16 400.952 202.306 271.57 202.306C142.187 202.306 37.2463 202.16 37.2463 201.978C37.2463 201.795 142.139 201.661 271.57 201.661C401.001 201.661 505.856 201.856 505.856 201.978Z" fill="#E0E0E0"/>
<path d="M505.856 186.364C505.856 186.547 400.952 186.68 271.57 186.68C142.187 186.68 37.2463 186.547 37.2463 186.364C37.2463 186.182 142.139 186.048 271.57 186.048C401.001 186.048 505.856 186.194 505.856 186.364Z" fill="#E0E0E0"/>
<path d="M505.856 218.43C505.856 218.612 400.952 218.746 271.57 218.746C142.187 218.746 37.2463 218.612 37.2463 218.43C37.2463 218.248 142.139 218.114 271.57 218.114C401.001 218.114 505.856 218.26 505.856 218.43Z" fill="#E0E0E0"/>
<path d="M505.856 234.883C505.856 235.053 400.952 235.199 271.57 235.199C142.187 235.199 37.2463 235.053 37.2463 234.883C37.2463 234.712 142.139 234.566 271.57 234.566C401.001 234.566 505.856 234.688 505.856 234.883Z" fill="#E0E0E0"/>
<path d="M505.856 251.335C505.856 251.505 400.952 251.651 271.57 251.651C142.187 251.651 37.2463 251.505 37.2463 251.335C37.2463 251.165 142.139 251.019 271.57 251.019C401.001 251.019 505.856 251.153 505.856 251.335Z" fill="#E0E0E0"/>
<path d="M505.856 267.775C505.856 267.958 400.952 268.092 271.57 268.092C142.187 268.092 37.2463 267.958 37.2463 267.775C37.2463 267.593 142.139 267.459 271.57 267.459C401.001 267.459 505.856 267.605 505.856 267.775Z" fill="#E0E0E0"/>
<path d="M505.856 284.228C505.856 284.398 400.952 284.544 271.57 284.544C142.187 284.544 37.2463 284.398 37.2463 284.228C37.2463 284.058 142.139 283.912 271.57 283.912C401.001 283.912 505.856 284.058 505.856 284.228Z" fill="#E0E0E0"/>
<path d="M505.856 300.68C505.856 300.851 400.952 300.996 271.57 300.996C142.187 300.996 37.2463 300.851 37.2463 300.68C37.2463 300.51 142.139 300.364 271.57 300.364C401.001 300.364 505.856 300.498 505.856 300.68Z" fill="#E0E0E0"/>
<path d="M505.856 317.121C505.856 317.303 400.952 317.449 271.57 317.449C142.187 317.449 37.2463 317.303 37.2463 317.121C37.2463 316.938 142.139 316.804 271.57 316.804C401.001 316.804 505.856 316.95 505.856 317.121Z" fill="#E0E0E0"/>
<path d="M505.856 333.573C505.856 333.756 400.952 333.889 271.57 333.889C142.187 333.889 37.2463 333.756 37.2463 333.573C37.2463 333.391 142.139 333.257 271.57 333.257C401.001 333.257 505.856 333.403 505.856 333.573Z" fill="#E0E0E0"/>
<path d="M505.856 350.026C505.856 350.196 400.952 350.342 271.57 350.342C142.187 350.342 37.2463 350.208 37.2463 350.026C37.2463 349.843 142.139 349.709 271.57 349.709C401.001 349.709 505.856 349.855 505.856 350.026Z" fill="#E0E0E0"/>
<path d="M505.856 366.478C505.856 366.648 400.952 366.794 271.57 366.794C142.187 366.794 37.2463 366.648 37.2463 366.478C37.2463 366.308 142.139 366.162 271.57 366.162C401.001 366.162 505.856 366.296 505.856 366.478Z" fill="#E0E0E0"/>
<path d="M508.446 186.364H54.3555V218.43H508.446V186.364Z" fill="#F9AC07"/>
<path d="M411.896 200.166C411.896 200.336 358.453 200.482 292.558 200.482C226.663 200.482 173.219 200.336 173.219 200.166C173.219 199.996 226.638 199.837 292.558 199.837C358.477 199.837 411.896 199.983 411.896 200.166Z" fill="#FAFAFA"/>
<path d="M434.453 209.298C434.453 209.468 367.634 209.614 285.213 209.614C202.793 209.614 135.973 209.468 135.973 209.298C135.973 209.128 202.78 208.982 285.213 208.982C367.646 208.982 434.453 209.152 434.453 209.298Z" fill="#FAFAFA"/>
<path d="M262.802 234.883H121.673V251.335H262.802V234.883Z" fill="#F9AC07"/>
<path d="M262.802 249.511H121.673V318.932H262.802V249.511Z" fill="#EBEBEB"/>
<path d="M181.379 258.826C181.379 259.008 169.73 259.142 155.369 259.142C141.008 259.142 129.358 259.008 129.358 258.826C129.358 258.643 141.008 258.509 155.369 258.509C169.73 258.509 181.379 258.655 181.379 258.826Z" fill="#263238"/>
<path d="M160.597 276.883C160.597 277.053 153.605 277.199 144.984 277.199C136.363 277.199 129.358 277.053 129.358 276.883C129.358 276.713 136.35 276.567 144.984 276.567C153.618 276.567 160.597 276.713 160.597 276.883Z" fill="#263238"/>
<path d="M186.401 290.04C186.401 290.211 173.633 290.356 157.886 290.356C142.139 290.356 129.358 290.211 129.358 290.04C129.358 289.87 142.126 289.724 157.886 289.724C173.645 289.724 186.401 289.858 186.401 290.04Z" fill="#263238"/>
<path d="M160.597 263.738C160.597 263.908 153.605 264.054 144.984 264.054C136.363 264.054 129.358 263.908 129.358 263.738C129.358 263.568 136.35 263.41 144.984 263.41C153.618 263.41 160.597 263.556 160.597 263.738Z" fill="#263238"/>
<path d="M257.561 258.826C254.809 259.146 252.037 259.251 249.268 259.142C246.496 259.251 243.719 259.146 240.963 258.826C243.72 258.513 246.496 258.407 249.268 258.509C252.037 258.407 254.809 258.513 257.561 258.826Z" fill="#263238"/>
<path d="M257.561 273.6C254.809 273.912 252.037 274.018 249.268 273.916C246.496 274.018 243.72 273.913 240.963 273.6C243.719 273.28 246.496 273.174 249.268 273.284C252.037 273.174 254.809 273.28 257.561 273.6Z" fill="#263238"/>
<path d="M257.561 290.04C254.809 290.353 252.037 290.458 249.268 290.356C246.496 290.459 243.72 290.353 240.963 290.04C243.719 289.72 246.496 289.615 249.268 289.724C252.037 289.615 254.809 289.72 257.561 290.04Z" fill="#263238"/>
<path d="M256.649 310.141C256.649 310.311 250.776 310.457 243.529 310.457C236.281 310.457 230.408 310.311 230.408 310.141C230.408 309.971 236.281 309.825 243.529 309.825C250.776 309.825 256.649 309.958 256.649 310.141Z" fill="#263238"/>
<path d="M193.077 317.729C192.907 317.729 192.761 302.723 192.761 284.228C192.761 265.732 192.907 250.727 193.077 250.727C193.247 250.727 193.393 265.72 193.393 284.228C193.393 302.735 193.259 317.729 193.077 317.729Z" fill="#E0E0E0"/>
<path d="M261.623 299.221C261.623 299.391 246.009 299.537 226.772 299.537C207.535 299.537 191.922 299.391 191.922 299.221C191.922 299.051 207.523 298.905 226.772 298.905C246.021 298.905 261.623 299.039 261.623 299.221Z" fill="#E0E0E0"/>
<path d="M262.802 349.418H121.673V366.478H262.802V349.418Z" fill="#F5F5F5"/>
<path d="M262.802 333.573H121.442V350.026H262.802V333.573Z" fill="#F9AC07"/>
<path d="M187.593 358.781C187.593 358.963 174.277 359.097 157.861 359.097C141.445 359.097 128.118 358.963 128.118 358.781C128.118 358.598 141.494 358.465 157.861 358.465C174.229 358.465 187.593 358.611 187.593 358.781Z" fill="#263238"/>
<path d="M256.649 357.942C256.649 358.112 250.776 358.258 243.529 358.258C236.281 358.258 230.408 358.112 230.408 357.942C230.408 357.772 236.281 357.626 243.529 357.626C250.776 357.626 256.649 357.772 256.649 357.942Z" fill="#263238"/>
<path d="M349.807 291.864H337.598V333.281H349.807V291.864Z" fill="#F9AC07"/>
<path d="M423.983 299.379H411.774V333.281H423.983V299.379Z" fill="#F9AC07"/>
<path d="M473.426 308.852H461.217V333.281H473.426V308.852Z" fill="#263238"/>
<path d="M374.528 266.462H362.32V333.281H374.528V266.462Z" fill="#455A64"/>
<path d="M399.262 266.462H387.053V333.281H399.262V266.462Z" fill="#263238"/>
<path d="M448.704 251.031H436.496V333.281H448.704V251.031Z" fill="#455A64"/>
<path d="M61.4326 147.391H50.598V158.226H61.4326V147.391Z" fill="#F9AC07"/>
<path d="M67.768 162.944H55.7296V150.906H67.768V162.944ZM56.9456 161.728H66.552V152.122H56.9456V161.728Z" fill="#F9AC07"/>
<path d="M93.7175 150.261H83.6003V160.378H93.7175V150.261Z" fill="#E0E0E0"/>
<path d="M110.17 150.261H100.053V160.378H110.17V150.261Z" fill="#E0E0E0"/>
<path d="M126.61 150.261H116.493V160.378H126.61V150.261Z" fill="#E0E0E0"/>
<path d="M143.063 150.261H132.946V160.378H143.063V150.261Z" fill="#E0E0E0"/>
<path d="M159.503 150.261H149.386V160.378H159.503V150.261Z" fill="#E0E0E0"/>
<path d="M281.492 150.164H174.557V160.488H281.492V150.164Z" fill="#E0E0E0"/>
<path d="M403.104 150.164H296.169V160.488H403.104V150.164Z" fill="#E0E0E0"/>
<path d="M508.446 150.164H416.249V160.488H508.446V150.164Z" fill="#E0E0E0"/>
<path d="M508.665 373.604C508.665 371.683 508.568 275.375 508.422 118.378L508.665 118.609L37.9638 118.694L38.2799 118.378C38.2799 208.556 38.2799 294.892 38.2799 373.604L37.9759 373.312L508.714 373.604L37.9759 373.908H37.6841V373.604C37.6841 294.892 37.6841 208.556 37.6841 118.378V118.049H38.0367L508.738 118.134H508.969V118.378C508.75 275.375 508.665 371.683 508.665 373.604Z" fill="#263238"/>
<path d="M285.529 400.794L318.361 435.827L367.463 421.235L376.109 440.374C376.109 440.374 319.127 461.606 314.142 459.648C309.156 457.69 279.17 432.276 279.17 432.276L285.529 400.794Z" fill="#F9AC07"/>
<path d="M305.374 423.168C304.669 424.068 303.892 424.91 303.052 425.685C301.593 427.205 299.611 429.333 297.531 431.765C294.126 435.778 291.585 439.426 290.71 440.532L290.211 441.165L290.551 440.447C290.709 440.107 290.807 439.949 290.831 439.961C290.855 439.973 290.831 440.156 290.722 440.508L290.564 440.423C292.451 437.213 294.62 434.177 297.045 431.352C298.829 429.241 300.729 427.232 302.736 425.332C303.536 424.52 304.421 423.794 305.374 423.168Z" fill="#FAFAFA"/>
<path d="M302.736 419.058C301.905 419.985 301.015 420.858 300.073 421.672C298.419 423.253 296.194 425.503 293.908 428.166C291.622 430.829 289.737 433.358 288.423 435.243C287.769 436.297 287.041 437.305 286.247 438.259C286.726 437.106 287.329 436.009 288.047 434.988C289.67 432.433 291.47 429.995 293.433 427.692C295.395 425.404 297.516 423.258 299.781 421.271C300.684 420.43 301.674 419.688 302.736 419.058Z" fill="#FAFAFA"/>
<path d="M372.534 524.582L371.719 520.776L350.5 524.972L351.911 533.265L353.248 533.131C359.182 532.523 383.369 529.629 387.114 527.817C391.285 525.786 372.534 524.582 372.534 524.582Z" fill="#F9AC07"/>
<g opacity="0.5">
<path d="M359.608 531.866C359.063 530.084 357.881 528.565 356.288 527.598C355.485 527.093 354.577 526.776 353.634 526.67C352.691 526.565 351.736 526.674 350.841 526.99L351.886 532.949L359.608 531.866Z" fill="white"/>
</g>
<g opacity="0.5">
<path d="M381.739 525.494C381.739 525.494 388.379 526.309 387.758 527.489C387.138 528.668 362.794 532.499 351.911 533.265V532.778L380.28 528.534C380.28 528.534 380.511 525.738 381.739 525.494Z" fill="white"/>
</g>
<path d="M351.534 532.815H351.911L352.969 532.705L356.872 532.268C360.155 531.866 364.703 531.246 369.689 530.468C374.674 529.69 379.198 528.875 382.457 528.243L386.299 527.464L387.345 527.233C387.471 527.218 387.593 527.185 387.71 527.136H387.333L386.287 527.318L382.42 528.012C379.161 528.595 374.65 529.373 369.652 530.164C364.654 530.954 360.131 531.587 356.848 532.036L352.957 532.559L351.899 532.705L351.534 532.815Z" fill="#263238"/>
<path d="M380.341 528.863C380.415 528.197 380.558 527.541 380.766 526.905C381.061 526.299 381.429 525.732 381.861 525.215C381.27 525.599 380.808 526.153 380.537 526.804C380.266 527.455 380.197 528.172 380.341 528.863Z" fill="#263238"/>
<path d="M373.543 526.674C373.616 526.674 373.86 526.285 374.091 525.75C374.268 525.432 374.372 525.079 374.395 524.716C374.322 524.716 374.078 525.105 373.847 525.64C373.67 525.958 373.566 526.311 373.543 526.674Z" fill="#263238"/>
<path d="M371.671 526.029C371.732 526.029 372.036 525.798 372.352 525.409C372.668 525.02 372.875 524.667 372.814 524.619C372.753 524.57 372.461 524.85 372.145 525.239C371.829 525.628 371.622 525.981 371.671 526.029Z" fill="#263238"/>
<path d="M370.272 524.193C371.029 524.255 371.791 524.143 372.498 523.865C371.741 523.803 370.979 523.915 370.272 524.193Z" fill="#263238"/>
<path d="M369.664 522.88C370.072 523.064 370.526 523.119 370.966 523.038C371.398 523.04 371.821 522.913 372.182 522.673C371.331 522.75 370.48 522.819 369.628 522.88H369.664Z" fill="#263238"/>
<path d="M373.981 524.692C374.445 524.703 374.906 524.629 375.343 524.473C375.829 524.328 376.301 524.141 376.754 523.914C377.033 523.792 377.295 523.632 377.532 523.439C377.606 523.382 377.668 523.311 377.714 523.23C377.76 523.148 377.789 523.058 377.799 522.965C377.806 522.861 377.782 522.757 377.73 522.666C377.678 522.575 377.601 522.502 377.508 522.454C376.945 522.279 376.34 522.304 375.794 522.526C375.248 522.748 374.797 523.152 374.516 523.67C374.352 523.976 374.249 524.31 374.212 524.655C374.186 524.78 374.186 524.908 374.212 525.032C374.292 524.606 374.44 524.196 374.65 523.816C374.905 523.406 375.272 523.077 375.708 522.868C375.958 522.736 376.232 522.656 376.514 522.631C376.796 522.605 377.08 522.637 377.349 522.722C377.593 522.856 377.556 523.123 377.349 523.306C377.125 523.478 376.885 523.629 376.632 523.756C376.193 523.984 375.738 524.179 375.27 524.339C374.492 524.57 373.969 524.655 373.981 524.692Z" fill="#263238"/>
<path d="M374.346 524.704C374.455 524.389 374.455 524.046 374.346 523.731C374.254 523.377 374.069 523.054 373.811 522.795C373.67 522.611 373.484 522.466 373.271 522.374C373.058 522.283 372.825 522.247 372.595 522.272C372.46 522.321 372.35 522.422 372.289 522.551C372.228 522.681 372.22 522.83 372.267 522.965C372.333 523.181 372.445 523.38 372.595 523.549C372.823 523.82 373.084 524.061 373.373 524.266C373.627 524.478 373.927 524.628 374.249 524.704C374.249 524.704 373.933 524.497 373.495 524.12C373.23 523.908 372.993 523.662 372.789 523.391C372.546 523.135 372.34 522.637 372.68 522.515C373.021 522.394 373.422 522.722 373.665 522.953C373.902 523.19 374.085 523.477 374.2 523.792C374.276 524.091 374.325 524.396 374.346 524.704Z" fill="#263238"/>
<path d="M351.096 526.917C351.096 526.917 351.692 526.759 352.677 526.723C353.95 526.671 355.213 526.974 356.325 527.598C357.432 528.239 358.341 529.173 358.951 530.298C359.426 531.149 359.547 531.769 359.596 531.745C359.597 531.6 359.572 531.455 359.523 531.319C359.424 530.933 359.286 530.558 359.11 530.2C358.53 529.009 357.602 528.022 356.449 527.371C355.296 526.719 353.972 526.434 352.653 526.552C352.241 526.582 351.833 526.656 351.437 526.771C351.315 526.799 351.2 526.848 351.096 526.917Z" fill="#263238"/>
<path d="M361.967 529.361C363.024 529.445 364.088 529.384 365.129 529.179C366.182 529.067 367.216 528.817 368.205 528.437C368.205 528.364 366.807 528.668 365.092 528.924C363.378 529.179 361.967 529.288 361.967 529.361Z" fill="#263238"/>
<path d="M357.784 530.018C357.784 530.079 357.942 530.298 358.137 530.589C358.331 530.881 358.453 531.161 358.526 531.149C358.599 531.137 358.587 530.784 358.356 530.444C358.125 530.103 357.821 529.957 357.784 530.018Z" fill="#263238"/>
<path d="M355.96 528.303C355.96 528.364 356.094 528.571 356.349 528.753C356.605 528.936 356.848 529.045 356.884 528.996C356.921 528.948 356.763 528.729 356.507 528.547C356.252 528.364 355.96 528.255 355.96 528.303Z" fill="#263238"/>
<path d="M353.528 527.744C353.528 527.817 353.844 527.744 354.173 527.829C354.501 527.914 354.756 528.024 354.805 527.963C354.854 527.902 354.622 527.635 354.221 527.574C353.82 527.513 353.528 527.744 353.528 527.744Z" fill="#263238"/>
<path d="M351.838 527.598C351.838 527.671 351.959 527.756 352.154 527.805C352.349 527.853 352.507 527.805 352.519 527.744C352.531 527.683 352.397 527.586 352.203 527.549C352.008 527.513 351.85 527.525 351.838 527.598Z" fill="#263238"/>
<path d="M247.931 499.144L320.891 430.33C323.131 428.053 325.804 426.246 328.753 425.016C331.701 423.786 334.866 423.158 338.061 423.168H339.508C345.196 423.54 350.589 425.832 354.804 429.669C359.019 433.507 361.806 438.662 362.709 444.29L377.848 520.083L347.448 528.595L336.504 467.236L300.474 499.8L247.931 499.144Z" fill="#263238"/>
<path d="M224.863 506.342C224.547 507.218 222.528 532.462 254.047 532.462H338.365C349.029 532.462 357.687 524.339 357.687 514.319C357.687 504.287 349.029 496.164 338.365 496.164H259.896C257.097 496.16 254.327 496.736 251.761 497.855L224.863 506.342Z" fill="#263238"/>
<path d="M345.855 496.128C345.855 496.31 328.442 496.468 306.943 496.468C285.444 496.468 268.031 496.31 268.031 496.128C268.031 495.946 285.444 495.788 306.943 495.788C328.442 495.788 345.855 495.982 345.855 496.128Z" fill="#455A64"/>
<path d="M334.279 451.197C334.473 451.197 334.485 454.845 335.142 459.271C335.799 463.697 336.832 467.187 336.638 467.26C334.568 462.174 333.758 456.663 334.279 451.197Z" fill="#455A64"/>
<path d="M337.854 450.674C338.299 456.207 337.843 461.776 336.504 467.163C336.309 467.163 336.82 463.515 337.209 458.918C337.598 454.322 337.72 450.674 337.854 450.674Z" fill="#455A64"/>
<path d="M343.873 531.745C346.098 530.851 348.174 529.62 350.026 528.097C351.989 526.412 353.587 524.343 354.72 522.017C356.072 519.163 356.662 516.008 356.434 512.859C356.206 509.71 355.167 506.673 353.419 504.044C351.962 501.913 350.083 500.105 347.898 498.73C345.847 497.506 343.62 496.604 341.295 496.055C341.46 496.031 341.628 496.031 341.794 496.055C342.273 496.106 342.749 496.191 343.216 496.31C344.929 496.733 346.568 497.409 348.08 498.317C350.367 499.671 352.336 501.5 353.856 503.679C355.693 506.381 356.784 509.519 357.019 512.778C357.253 516.036 356.624 519.298 355.194 522.236C354.008 524.609 352.329 526.703 350.269 528.376C348.883 529.498 347.338 530.407 345.685 531.076C345.24 531.252 344.785 531.402 344.323 531.526C344.181 531.615 344.03 531.688 343.873 531.745Z" fill="#455A64"/>
<path d="M273.941 335.738L273.26 339.386L262.669 394.045C261.453 400.392 265.915 406.509 272.725 407.773C279.595 408.989 286.247 404.904 287.597 398.508C289.019 391.807 290.624 384.767 290.624 384.767C290.624 384.767 299.574 385.132 303.709 374.224C305.764 368.801 307.357 359.535 308.475 351.923C308.715 350.291 308.621 348.627 308.197 347.032C307.774 345.438 307.03 343.947 306.012 342.649C304.994 341.351 303.723 340.274 302.275 339.483C300.828 338.692 299.234 338.204 297.592 338.048L273.941 335.738Z" fill="#FFBE9D"/>
<path d="M305.545 358.27C305.514 358.461 305.445 358.644 305.344 358.808C305.242 358.973 305.109 359.116 304.952 359.228C304.795 359.341 304.617 359.422 304.429 359.466C304.241 359.511 304.045 359.517 303.855 359.486C303.668 359.461 303.488 359.399 303.326 359.303C303.164 359.208 303.022 359.082 302.909 358.931C302.796 358.781 302.714 358.61 302.667 358.427C302.621 358.245 302.611 358.055 302.639 357.869C302.704 357.482 302.92 357.137 303.239 356.91C303.558 356.682 303.954 356.589 304.341 356.653C304.527 356.678 304.706 356.74 304.868 356.836C305.03 356.931 305.171 357.058 305.283 357.208C305.395 357.359 305.476 357.53 305.521 357.713C305.566 357.895 305.574 358.085 305.545 358.27Z" fill="#263238"/>
<path d="M305.484 356.288C305.265 356.446 304.341 355.4 302.784 355.072C301.228 354.744 299.927 355.303 299.793 355.072C299.659 354.841 299.975 354.671 300.559 354.403C301.328 354.083 302.176 354.002 302.991 354.172C303.804 354.342 304.542 354.768 305.095 355.388C305.496 355.862 305.593 356.288 305.484 356.288Z" fill="#263238"/>
<path d="M289.992 354.732C289.926 355.118 289.711 355.463 289.392 355.691C289.073 355.919 288.676 356.011 288.29 355.948C288.103 355.925 287.923 355.866 287.76 355.772C287.597 355.679 287.454 355.553 287.341 355.403C287.227 355.254 287.145 355.082 287.099 354.9C287.053 354.718 287.045 354.528 287.074 354.342C287.105 354.152 287.173 353.969 287.275 353.804C287.377 353.64 287.51 353.497 287.667 353.384C287.824 353.271 288.001 353.19 288.19 353.146C288.378 353.102 288.573 353.095 288.764 353.126C289.139 353.178 289.478 353.375 289.708 353.676C289.939 353.977 290.04 354.356 289.992 354.732Z" fill="#263238"/>
<path d="M290.126 353.418C289.907 353.564 288.91 352.531 287.414 352.202C285.919 351.874 284.557 352.421 284.435 352.202C284.313 351.983 284.617 351.789 285.189 351.533C285.957 351.21 286.806 351.13 287.621 351.302C288.435 351.471 289.172 351.898 289.725 352.518C290.138 352.98 290.223 353.357 290.126 353.418Z" fill="#263238"/>
<path d="M293.373 366.138C294.248 366.052 295.13 366.076 295.999 366.211C296.4 366.211 296.802 366.211 296.923 365.992C297.04 365.595 297.04 365.173 296.923 364.776C296.753 363.742 296.571 362.648 296.376 361.505C295.816 358.699 295.482 355.852 295.379 352.993C296.163 355.732 296.724 358.529 297.057 361.359C297.227 362.502 297.398 363.596 297.556 364.642C297.698 365.175 297.656 365.741 297.434 366.247C297.345 366.374 297.229 366.479 297.095 366.554C296.96 366.63 296.81 366.675 296.656 366.685C296.426 366.718 296.192 366.718 295.963 366.685C295.08 366.608 294.211 366.424 293.373 366.138Z" fill="#263238"/>
<path d="M290.624 384.779C285.295 383.758 280.353 381.279 276.349 377.617C276.349 377.617 278.416 386.129 289.919 387.418L290.624 384.779Z" fill="#EB996E"/>
<path d="M288.569 366.259C288.825 366.259 288.484 367.986 289.676 369.494C290.868 371.002 292.716 371.172 292.679 371.415C292.643 371.658 292.205 371.658 291.463 371.524C290.474 371.332 289.583 370.799 288.946 370.017C288.334 369.261 288.038 368.298 288.119 367.329C288.18 366.612 288.46 366.223 288.569 366.259Z" fill="#263238"/>
<path d="M291.792 347.399C291.549 347.788 290.041 347.265 288.144 347.107C286.247 346.949 284.69 347.107 284.496 346.706C284.435 346.511 284.775 346.159 285.456 345.879C286.348 345.526 287.312 345.397 288.265 345.502C289.225 345.58 290.151 345.889 290.965 346.402C291.634 346.815 291.901 347.217 291.792 347.399Z" fill="#263238"/>
<path d="M305.849 351.679C305.496 351.983 304.511 351.388 303.222 351.108C301.933 350.828 300.79 350.84 300.62 350.427C300.547 350.22 300.79 349.904 301.337 349.673C302.058 349.389 302.85 349.343 303.599 349.539C304.356 349.703 305.042 350.103 305.557 350.682C305.934 351.144 306.007 351.533 305.849 351.679Z" fill="#263238"/>
<path d="M320.38 339.021C320.572 338.099 320.461 337.139 320.064 336.285C319.909 335.526 319.475 334.854 318.848 334.4C318.049 334.138 317.181 334.186 316.416 334.534C313.655 335.336 310.336 335.203 308.378 333.05C306.882 331.372 306.59 328.794 304.852 327.372C303.113 325.949 300.133 326.228 297.787 326.982C295.44 327.736 292.923 328.746 290.576 328.04C288.945 327.335 287.436 326.379 286.101 325.207C283.42 323.322 280.1 322.579 276.871 323.14C275.279 323.447 273.785 324.133 272.515 325.141C271.245 326.148 270.236 327.448 269.575 328.928C268.954 330.428 268.776 332.075 269.06 333.674C269.344 335.273 270.08 336.757 271.181 337.951C271.29 338.097 271.399 338.23 271.521 338.364C270.402 344.225 269.089 353.564 271.716 354.269C275.595 355.315 276.981 345.368 276.981 345.368C282.222 344.724 283.401 339.592 284.873 338.802C286.344 338.012 291.986 340.273 296.583 343.666C302.286 347.873 312.208 348.53 315.674 348.615C315.977 348.645 316.283 348.645 316.586 348.615H316.914C317.144 348.568 317.368 348.499 317.583 348.408C318.663 347.739 319.453 346.689 319.796 345.466C320.288 344.444 320.51 343.314 320.441 342.182C320.385 341.77 320.237 341.375 320.008 341.027C319.778 340.68 319.473 340.389 319.115 340.176C319.407 340.107 319.676 339.964 319.897 339.762C320.119 339.56 320.285 339.305 320.38 339.021Z" fill="#263238"/>
<path d="M313.619 341.343C313.716 341.14 313.867 340.967 314.057 340.845C314.322 340.649 314.63 340.518 314.955 340.463C315.281 340.408 315.614 340.431 315.929 340.529C316.436 340.714 316.854 341.084 317.1 341.564C317.346 342.044 317.401 342.599 317.255 343.119C317.157 343.446 316.98 343.744 316.741 343.988C316.501 344.231 316.206 344.413 315.881 344.517C315.171 344.76 314.401 344.76 313.692 344.517C312.135 344.006 311.26 342.377 310.603 340.869C310.305 340.032 309.943 339.219 309.521 338.437C309.109 337.643 308.486 336.979 307.721 336.516C307.311 336.313 306.864 336.193 306.407 336.164C305.95 336.135 305.491 336.197 305.058 336.346C304.122 336.601 303.186 337.063 302.152 337.379C301.083 337.72 299.945 337.783 298.845 337.562C297.73 337.322 296.668 336.886 295.707 336.273C293.88 335.052 292.22 333.596 290.77 331.944C289.444 330.462 287.893 329.198 286.174 328.198C284.594 327.37 282.774 327.12 281.03 327.493C279.146 327.874 277.477 328.956 276.36 330.52C275.242 332.084 274.76 334.014 275.011 335.92C275.128 336.748 275.328 337.563 275.607 338.352C275.472 338.173 275.362 337.976 275.278 337.768C275.028 337.186 274.856 336.572 274.768 335.944C274.589 334.776 274.67 333.582 275.006 332.449C275.343 331.316 275.926 330.271 276.713 329.39C277.928 328.086 279.536 327.213 281.292 326.906C283.048 326.599 284.856 326.873 286.441 327.688C288.234 328.693 289.853 329.982 291.232 331.506C292.665 333.119 294.3 334.542 296.096 335.738C296.995 336.31 297.987 336.722 299.027 336.954C300.026 337.153 301.058 337.099 302.03 336.796C303.015 336.504 303.952 336.042 304.961 335.774C305.468 335.608 306.004 335.543 306.536 335.585C307.068 335.627 307.587 335.774 308.062 336.017C309.91 337.112 310.494 339.106 311.15 340.638C311.807 342.17 312.585 343.666 313.911 344.116C314.519 344.345 315.184 344.37 315.808 344.189C316.087 344.118 316.345 343.978 316.557 343.783C316.769 343.588 316.93 343.343 317.024 343.07C317.156 342.628 317.119 342.152 316.922 341.734C316.724 341.317 316.38 340.987 315.954 340.808C315.67 340.712 315.368 340.678 315.07 340.709C314.772 340.741 314.484 340.837 314.227 340.991C313.765 341.161 313.643 341.368 313.619 341.343Z" fill="#455A64"/>
<path d="M318.082 343.532C318.057 343.694 318.003 343.851 317.924 343.994C317.723 344.425 317.447 344.816 317.109 345.149C316.567 345.689 315.891 346.075 315.151 346.268C314.157 346.524 313.105 346.43 312.172 346.001C311.104 345.407 310.211 344.543 309.582 343.496C309.229 342.981 308.794 342.529 308.293 342.158C308.034 341.982 307.742 341.861 307.434 341.802C307.127 341.744 306.811 341.749 306.505 341.818C305.811 341.983 305.132 342.207 304.475 342.486C303.726 342.755 302.936 342.891 302.14 342.888C300.481 342.863 298.852 342.446 297.385 341.672C294.382 340.103 292.144 337.817 289.737 336.382C287.706 334.941 285.195 334.344 282.733 334.716C281.925 334.904 281.168 335.264 280.513 335.772C279.858 336.28 279.321 336.924 278.939 337.659C278.705 338.227 278.549 338.824 278.477 339.434C278.448 339.269 278.448 339.101 278.477 338.936C278.487 338.46 278.586 337.989 278.768 337.549C279.13 336.746 279.67 336.036 280.346 335.472C281.022 334.907 281.817 334.503 282.672 334.291C283.952 334.053 285.267 334.072 286.54 334.345C287.813 334.619 289.019 335.141 290.089 335.884C292.594 337.355 294.844 339.617 297.714 341.1C299.088 341.842 300.615 342.258 302.176 342.316C302.909 342.324 303.637 342.204 304.329 341.964C305.019 341.682 305.731 341.454 306.457 341.283C306.834 341.209 307.222 341.212 307.598 341.292C307.974 341.371 308.33 341.525 308.645 341.745C309.194 342.158 309.671 342.659 310.056 343.228C310.614 344.233 311.428 345.072 312.415 345.66C313.249 346.081 314.202 346.201 315.115 346.001C315.809 345.842 316.453 345.512 316.987 345.04C317.416 344.587 317.784 344.08 318.082 343.532Z" fill="#455A64"/>
<path d="M272.713 350.269C272.567 350.159 266.633 346.682 265.21 353.248C263.787 359.814 270.67 359.9 270.718 359.717C270.767 359.535 272.713 350.269 272.713 350.269Z" fill="#FFBE9D"/>
<path d="M269.259 356.787C269.259 356.787 269.125 356.787 268.919 356.896C268.62 356.949 268.312 356.888 268.055 356.726C267.691 356.365 267.429 355.913 267.297 355.417C267.164 354.922 267.166 354.4 267.301 353.905C267.405 353.336 267.638 352.8 267.982 352.336C268.088 352.144 268.238 351.981 268.42 351.861C268.602 351.74 268.811 351.665 269.028 351.643C269.168 351.636 269.305 351.679 269.416 351.764C269.527 351.848 269.605 351.969 269.636 352.105C269.636 352.312 269.636 352.433 269.636 352.445C269.636 352.458 269.794 352.372 269.806 352.081C269.807 351.911 269.747 351.747 269.636 351.619C269.485 351.443 269.271 351.334 269.04 351.315C268.76 351.31 268.484 351.376 268.237 351.508C267.99 351.64 267.781 351.833 267.63 352.068C267.226 352.575 266.951 353.172 266.827 353.807C266.668 354.386 266.682 354.999 266.868 355.569C267.054 356.14 267.403 356.644 267.873 357.018C268.044 357.098 268.231 357.14 268.42 357.14C268.609 357.14 268.796 357.098 268.967 357.018C269.211 356.945 269.284 356.811 269.259 356.787Z" fill="#EB996E"/>
<path d="M380.11 421.526C381.995 421.794 394.07 423.618 395.213 424.518C396.356 425.418 396.331 426.682 394.969 426.95C393.607 427.217 385.983 426.707 385.983 426.707C385.983 426.707 395.821 426.938 396.125 427.923C396.599 429.479 393.097 430.355 386.518 429.309C386.518 429.309 396.55 428.239 396.441 430.707C396.441 431.923 387.418 432.033 387.418 432.033C387.211 432.726 396.453 430.817 396.72 432.3C396.842 433.005 395.577 433.723 390.884 434.38C388.05 434.781 383.369 435.364 378.724 435.985V436.045L373.641 436.763L367.682 423.326C368.144 422.876 370.953 421.113 372.863 419.788C374.051 418.962 375.498 418.594 376.936 418.754C377.671 418.836 378.365 419.135 378.928 419.614C379.491 420.093 379.899 420.729 380.098 421.441L380.11 421.526Z" fill="#FFBE9D"/>
<path d="M394.361 427.266C391.222 427.07 388.091 426.762 384.974 426.342C386.541 426.03 388.151 426.001 389.728 426.257C391.321 426.307 392.892 426.649 394.361 427.266Z" fill="#EB996E"/>
<path d="M394.714 429.455C393.324 429.607 391.921 429.607 390.531 429.455C389.131 429.511 387.728 429.417 386.348 429.175C387.715 428.789 389.143 428.669 390.555 428.822C391.969 428.762 393.382 428.977 394.714 429.455Z" fill="#EB996E"/>
<path d="M395.067 431.68C393.697 431.984 392.299 432.143 390.896 432.154C389.514 432.382 388.111 432.459 386.713 432.385C388.021 431.829 389.426 431.535 390.847 431.522C392.251 431.303 393.683 431.357 395.067 431.68Z" fill="#EB996E"/>
<path d="M414.45 457.848L379.83 452.449C379.43 452.389 379.046 452.249 378.7 452.039C378.355 451.83 378.054 451.553 377.815 451.227C377.577 450.9 377.405 450.529 377.311 450.136C377.216 449.743 377.2 449.334 377.264 448.935L384.56 402.289C384.623 401.888 384.763 401.504 384.974 401.157C385.185 400.811 385.462 400.509 385.79 400.27C386.117 400.031 386.489 399.858 386.883 399.762C387.277 399.666 387.686 399.649 388.087 399.711L412.297 403.481L423.703 418.681L417.976 455.27C417.914 455.671 417.773 456.056 417.562 456.402C417.351 456.749 417.074 457.05 416.747 457.29C416.419 457.529 416.048 457.702 415.654 457.798C415.26 457.893 414.851 457.911 414.45 457.848Z" fill="#F9AC07"/>
<path d="M412.273 403.372L410.826 412.65C410.658 413.749 410.932 414.87 411.588 415.768C412.245 416.666 413.23 417.267 414.328 417.441L423.667 418.657L412.273 403.372Z" fill="#F9AC07"/>
<g opacity="0.2">
<path d="M412.273 403.372L410.826 412.65C410.658 413.749 410.932 414.87 411.588 415.768C412.245 416.666 413.23 417.267 414.328 417.441L423.667 418.657L412.273 403.372Z" fill="black"/>
</g>
<path d="M410.68 447.816C410.664 447.667 410.664 447.516 410.68 447.366C410.68 447.038 410.777 446.625 410.85 446.15C411.008 445.007 411.227 443.451 411.495 441.493C412.091 437.468 412.918 431.838 413.927 425.077L414.158 425.393L390.531 421.745L390.884 421.49V421.66V421.855V422.244L390.762 423.022C390.677 423.533 390.592 424.044 390.519 424.554L390.045 427.594C389.728 429.588 389.424 431.546 389.12 433.455C388.512 437.261 387.904 440.861 387.418 444.18L387.187 443.864L404.211 446.661L409.075 447.488L410.364 447.719C410.52 447.738 410.675 447.771 410.826 447.816H410.413L409.197 447.646L404.418 446.977L387.187 444.436H386.919V444.156C387.43 440.836 387.977 437.237 388.561 433.419C388.865 431.51 389.169 429.552 389.473 427.558L389.947 424.518C390.02 424.007 390.105 423.496 390.178 422.986L390.3 422.207L390.361 421.818V421.624V421.453L390.726 421.186L414.328 424.834H414.608V425.101C413.489 431.911 412.565 437.59 411.896 441.651C411.568 443.572 411.3 445.105 411.106 446.211C411.021 446.698 410.948 447.087 410.899 447.427C410.845 447.567 410.771 447.698 410.68 447.816Z" fill="white"/>
<path d="M398.617 446.272C398.892 442.446 399.379 438.638 400.077 434.866C400.562 431.061 401.256 427.286 402.156 423.557C401.881 427.383 401.394 431.191 400.697 434.963C400.213 438.768 399.519 442.544 398.617 446.272Z" fill="white"/>
<path d="M411.47 442.235C407.478 441.933 403.504 441.422 399.566 440.703C395.596 440.188 391.655 439.469 387.758 438.55C391.752 438.843 395.726 439.355 399.663 440.083C403.634 440.589 407.576 441.308 411.47 442.235Z" fill="white"/>
<path d="M412.638 436.544C408.649 436.25 404.679 435.738 400.745 435.012C396.775 434.499 392.834 433.781 388.938 432.86C392.931 433.154 396.905 433.666 400.843 434.392C404.809 434.905 408.746 435.623 412.638 436.544Z" fill="white"/>
<path d="M413.367 430.671C409.404 430.37 405.459 429.862 401.548 429.151C397.608 428.65 393.698 427.932 389.838 426.998C393.797 427.299 397.739 427.806 401.645 428.518C405.589 429.018 409.503 429.737 413.367 430.671Z" fill="white"/>
<path d="M281.821 495.605V491.276L343.46 492.541L378.955 435.827L382.214 438.186L345.855 496.164L281.821 495.605Z" fill="#455A64"/>
<path d="M324.466 476.672L327.567 481.281V490.741C327.143 490.848 326.697 490.817 326.293 490.653C325.888 490.489 325.546 490.2 325.317 489.829C324.677 487.981 324.177 486.086 323.821 484.163L322.326 488.042C322.028 488.802 321.464 489.428 320.74 489.804C320.015 490.179 319.178 490.279 318.386 490.084L306.955 487.215L311.625 473.839L324.466 476.672Z" fill="#FFBE9D"/>
<path d="M377.398 418.803L387.904 422.147C387.919 422.394 387.881 422.642 387.791 422.873C387.702 423.105 387.563 423.314 387.386 423.487C387.208 423.66 386.995 423.793 386.761 423.876C386.528 423.96 386.279 423.992 386.032 423.971C384.098 423.898 378.942 423.411 378.942 423.411C378.942 423.411 378.942 427.059 375.902 427.825C375.902 427.825 372.084 421.21 372.254 421.028C372.425 420.845 377.398 418.803 377.398 418.803Z" fill="#FFBE9D"/>
<path d="M378.176 432.689C378.176 432.689 378.018 432.3 377.678 431.704C377.226 430.882 376.523 430.225 375.671 429.832L375.1 429.564L375.696 429.321C376.883 428.838 377.861 427.951 378.456 426.816C378.977 425.849 379.198 424.748 379.088 423.654V423.302H379.441C380.992 423.35 382.535 423.545 384.05 423.885C382.501 424.032 380.941 424.032 379.392 423.885L379.696 423.557C379.868 424.77 379.646 426.006 379.064 427.084C378.403 428.364 377.289 429.352 375.939 429.856V429.345C376.866 429.821 377.594 430.609 377.994 431.571C378.249 432.252 378.225 432.677 378.176 432.689Z" fill="#EB996E"/>
<path d="M261.343 385.229C261.343 385.229 247.566 393.108 242.459 400.794C237.351 408.479 228.28 417.587 221.945 442.296C216.461 463.868 214.418 493.124 220.352 501.199C222.342 504.107 224.747 506.708 227.49 508.92L238.142 504.555C250.825 500.019 262.365 497.089 272.311 488.017L292.509 469.583L281.784 461.144C281.784 461.144 289.919 417.197 287.755 401.852C285.906 388.427 261.343 385.229 261.343 385.229Z" fill="#F9AC07"/>
<path d="M256.066 406.472L244.781 459.186C243.829 463.64 244.519 468.288 246.725 472.272C248.931 476.257 252.503 479.31 256.783 480.867L305.8 490.267L311.88 472.027L272.129 459.648L283.803 408.722L256.066 406.472Z" fill="#F9AC07"/>
<path d="M244.368 469.206L244.441 469.522C244.489 469.741 244.55 470.045 244.623 470.434L244.757 471.103L245.049 471.893L245.377 472.805C245.547 473.109 245.73 473.437 245.912 473.79C246.905 475.463 248.259 476.892 249.876 477.973C252.071 479.438 254.508 480.5 257.075 481.11L305.557 489.987L305.229 490.17C307.259 484.381 309.387 478.265 311.613 471.93L311.819 472.331L272.056 459.916L271.752 459.818L271.837 459.502C272.518 456.79 273.26 453.884 274.014 450.99C276.324 441.761 278.489 432.75 280.374 423.958C281.298 419.569 282.173 415.252 282.806 410.984C282.976 409.926 282.976 408.868 283.073 407.822C283.067 406.787 282.948 405.755 282.72 404.746C282.257 402.753 281.328 400.898 280.009 399.334C278.729 397.837 277.132 396.643 275.334 395.84C273.536 395.036 271.581 394.643 269.612 394.689C267.757 394.797 265.944 395.284 264.286 396.121C262.627 396.957 261.158 398.126 259.969 399.553C257.694 402.232 256 405.354 254.996 408.722C254.053 411.835 253.301 415.002 252.746 418.207C250.314 430.428 248.381 440.326 247.019 447.196L245.438 455.064C245.255 455.951 245.11 456.632 245 457.119C244.891 457.605 244.842 457.812 244.842 457.812C244.861 457.575 244.893 457.34 244.939 457.107C245.024 456.608 245.146 455.891 245.304 455.039C245.645 453.215 246.131 450.552 246.763 447.148C248.064 440.265 249.949 430.355 252.272 418.122C252.815 414.893 253.558 411.701 254.497 408.564C255.513 405.123 257.231 401.931 259.543 399.188C260.78 397.693 262.31 396.468 264.04 395.589C265.771 394.71 267.663 394.197 269.6 394.081C271.662 394.031 273.709 394.441 275.591 395.282C277.474 396.124 279.146 397.375 280.483 398.945C281.871 400.581 282.851 402.523 283.341 404.612C283.584 405.669 283.706 406.75 283.705 407.834C283.62 408.916 283.62 410.023 283.438 411.093C282.842 415.386 281.967 419.715 281.006 424.104C279.121 432.896 276.92 441.882 274.646 451.136C273.892 454.067 273.151 456.973 272.457 459.648L272.239 459.247L312.002 471.674L312.306 471.772L312.208 472.076L305.788 490.316L305.703 490.547H305.46C285.396 486.789 268.688 483.725 256.99 481.427C254.383 480.79 251.912 479.69 249.694 478.18C248.062 477.061 246.706 475.584 245.73 473.863C245.535 473.51 245.365 473.17 245.195 472.854L244.879 471.917L244.611 471.127C244.611 470.876 244.575 470.645 244.502 470.434L244.356 469.51C244.347 469.408 244.351 469.306 244.368 469.206Z" fill="#263238"/>
<path d="M265.295 466.494C265.222 466.494 265.149 465.874 265.405 464.925C265.75 463.676 266.431 462.544 267.374 461.654C268.303 460.749 269.458 460.11 270.718 459.806C271.691 459.599 272.299 459.697 272.299 459.806C272.299 459.916 271.716 460.001 270.852 460.305C269.729 460.71 268.703 461.347 267.842 462.174C266.981 463.002 266.304 464.001 265.854 465.108C265.502 465.923 265.405 466.506 265.295 466.494Z" fill="#263238"/>
<g opacity="0.2">
<path d="M254.91 405.767C249.204 424.119 245.25 442.97 243.103 462.068C242.375 466.446 242.288 470.907 242.848 475.31C243.602 479.688 245.754 483.992 249.475 486.4C253.089 488.512 257.372 489.169 261.453 488.236C265.526 487.458 272.105 486.558 275.838 484.795L253.95 480.271C253.95 480.271 239.808 479.396 245.888 452.303C251.968 425.211 254.91 405.767 254.91 405.767Z" fill="black"/>
</g>
<path d="M281.784 461.144C281.799 460.441 281.877 459.741 282.015 459.052C282.222 457.605 282.489 455.684 282.818 453.361C283.523 448.497 284.484 441.87 285.529 434.586C286.575 427.302 287.475 420.614 288.083 415.799L288.8 410.096C288.843 409.395 288.949 408.699 289.117 408.017C289.141 408.719 289.117 409.422 289.044 410.12C288.946 411.482 288.776 413.44 288.521 415.848C288.022 420.712 287.195 427.339 286.149 434.684C285.104 442.028 284.082 448.643 283.268 453.422C282.854 455.854 282.514 457.751 282.258 459.089C282.158 459.786 281.999 460.473 281.784 461.144Z" fill="#263238"/>
<path d="M281.091 422.791C281.091 422.888 279.522 422.293 277.017 421.514C270.477 419.458 263.65 418.46 256.795 418.559C254.169 418.559 252.539 418.73 252.527 418.62C252.893 418.498 253.273 418.424 253.658 418.401C254.388 418.292 255.458 418.182 256.783 418.109C263.706 417.755 270.631 418.768 277.163 421.089C278.379 421.539 279.401 421.94 280.069 422.305C280.43 422.422 280.773 422.585 281.091 422.791Z" fill="#FAFAFA"/>
<path d="M279.778 428.214C279.778 428.312 278.197 427.704 275.643 426.998C268.983 425.023 262.021 424.269 255.093 424.773C252.442 424.968 250.8 425.223 250.788 425.114C251.15 424.963 251.53 424.861 251.919 424.81C252.649 424.652 253.719 424.481 255.056 424.335C258.54 423.954 262.055 423.954 265.538 424.335C269.021 424.717 272.453 425.467 275.777 426.573C277.054 427.011 278.063 427.412 278.744 427.716C279.425 428.02 279.802 428.166 279.778 428.214Z" fill="#FAFAFA"/>
<path d="M297.142 389.375C297.146 388.603 296.915 387.849 296.481 387.21C296.047 386.572 295.429 386.081 294.71 385.8C293.378 385.496 291.993 385.496 290.661 385.8C285.82 386.284 280.958 385.109 276.871 382.468C273.223 380.036 270.244 376.547 266.195 374.893C265.16 374.43 264.031 374.218 262.9 374.273C262.332 374.304 261.78 374.465 261.285 374.744C260.789 375.022 260.364 375.41 260.042 375.878C259.057 377.422 259.714 379.526 260.845 380.973C258.668 382.079 257.549 384.937 258.948 386.943C268.905 388.323 277.92 393.564 284.046 401.535C284.97 403.035 286.216 404.31 287.694 405.268C290.576 406.752 294.394 404.989 295.768 402.058C296.359 400.548 296.557 398.913 296.344 397.305C296.132 395.697 295.515 394.17 294.552 392.865C295.287 392.616 295.929 392.148 296.392 391.525C296.855 390.901 297.116 390.151 297.142 389.375Z" fill="#455A64"/>
<path d="M294.236 392.573C293.872 392.856 293.46 393.07 293.02 393.206C291.895 393.669 290.713 393.98 289.506 394.13C287.702 394.359 285.871 394.252 284.107 393.814C281.959 393.229 279.941 392.243 278.16 390.908C276.251 389.533 274.598 388.05 273.053 386.785C271.704 385.642 270.264 384.609 268.749 383.697C267.323 382.908 265.814 382.28 264.249 381.824C264.697 381.81 265.145 381.867 265.575 381.994C266.76 382.277 267.901 382.719 268.967 383.308C270.538 384.178 272.028 385.187 273.418 386.323C274.999 387.539 276.653 389.047 278.525 390.385C280.243 391.68 282.184 392.649 284.253 393.242C285.947 393.697 287.71 393.845 289.457 393.68C291.086 393.487 292.688 393.116 294.236 392.573Z" fill="#263238"/>
<path d="M289.688 405.937C289.979 405.849 290.264 405.739 290.539 405.609C291.278 405.215 291.886 404.615 292.29 403.882C292.887 402.795 293.145 401.554 293.032 400.319C292.926 398.806 292.636 397.312 292.169 395.869C292.037 395.453 291.796 395.08 291.471 394.789C291.146 394.498 290.748 394.3 290.32 394.215H290.101L290.296 393.984C291.043 393.053 291.469 391.906 291.512 390.713C291.538 389.77 291.32 388.836 290.88 388.001C290.471 387.251 289.922 386.586 289.262 386.044C289.463 386.156 289.651 386.291 289.822 386.445C290.309 386.867 290.72 387.368 291.038 387.928C291.518 388.777 291.766 389.738 291.755 390.713C291.729 391.957 291.303 393.159 290.539 394.142L290.296 393.984C290.772 394.068 291.216 394.281 291.579 394.601C291.941 394.92 292.208 395.334 292.351 395.796C292.839 397.267 293.134 398.796 293.227 400.344C293.322 401.615 293.034 402.886 292.4 403.992C291.964 404.736 291.316 405.333 290.539 405.706C290.271 405.833 289.983 405.911 289.688 405.937Z" fill="#FAFAFA"/>
<path d="M282.356 384.998C282.946 385.566 283.414 386.249 283.73 387.004C284.556 388.833 284.678 390.904 284.07 392.817L283.876 393.34V393.23C284.323 394.054 284.591 394.962 284.665 395.897C284.738 396.831 284.614 397.77 284.301 398.653C284.07 399.382 283.674 400.047 283.146 400.599C283.547 399.973 283.877 399.304 284.131 398.605C284.41 397.745 284.512 396.837 284.431 395.936C284.349 395.035 284.086 394.16 283.657 393.364V393.303V393.242L283.839 392.744C284.425 390.884 284.334 388.877 283.584 387.077C283.25 386.342 282.838 385.645 282.356 384.998Z" fill="#FAFAFA"/>
<path d="M277.248 382.444C277.345 382.557 277.423 382.684 277.479 382.821C277.657 383.19 277.791 383.577 277.881 383.976C278.167 385.311 277.995 386.703 277.394 387.928C277.186 388.364 276.925 388.773 276.616 389.144V389.071C276.569 389.592 276.416 390.098 276.168 390.558C275.919 391.018 275.579 391.422 275.169 391.747C274.935 391.939 274.672 392.095 274.391 392.209C274.297 392.262 274.194 392.295 274.087 392.306C274.428 392.103 274.757 391.88 275.072 391.637C275.815 390.973 276.28 390.052 276.373 389.059C276.659 388.709 276.907 388.33 277.115 387.928C277.688 386.747 277.876 385.416 277.65 384.122C277.553 383.555 277.418 382.994 277.248 382.444Z" fill="#FAFAFA"/>
<path d="M270.645 377.702C270.169 378.1 269.74 378.553 269.369 379.052C268.947 379.662 268.656 380.353 268.513 381.081C268.371 381.809 268.381 382.559 268.542 383.283V383.526V383.648H268.42C267.73 383.816 267.101 384.176 266.606 384.686C266.111 385.195 265.771 385.835 265.623 386.53C265.528 387.114 265.528 387.709 265.623 388.293C265.548 388.149 265.498 387.993 265.477 387.831C265.395 387.389 265.395 386.935 265.477 386.493C265.608 385.751 265.953 385.064 266.469 384.515C266.986 383.966 267.651 383.581 268.384 383.405L268.299 383.563L268.226 383.308C268.058 382.549 268.055 381.764 268.217 381.005C268.378 380.246 268.701 379.53 269.162 378.906C269.442 378.532 269.774 378.201 270.147 377.921C270.3 377.821 270.469 377.747 270.645 377.702Z" fill="#FAFAFA"/>
<path d="M260.443 387.126C260.28 387.005 260.143 386.852 260.042 386.676C259.742 386.215 259.539 385.698 259.446 385.156C259.309 384.326 259.441 383.473 259.823 382.724C260.301 381.808 261.11 381.108 262.085 380.766L262.024 380.961L261.829 380.681C261.251 379.771 261.038 378.677 261.234 377.617C261.393 376.768 261.819 375.993 262.45 375.404C262.872 375.004 263.379 374.704 263.933 374.528C264.132 374.453 264.341 374.408 264.553 374.394C263.816 374.617 263.138 375.004 262.571 375.525C261.988 376.109 261.594 376.855 261.44 377.665C261.27 378.661 261.478 379.685 262.024 380.535C262.078 380.629 262.139 380.718 262.206 380.803L262.304 380.948H262.146C261.229 381.266 260.465 381.917 260.005 382.772C259.629 383.467 259.488 384.265 259.604 385.046C259.704 385.799 259.993 386.514 260.443 387.126Z" fill="#FAFAFA"/>
<path d="M110.073 478.35C112.455 472.135 115.565 466.225 119.339 460.742C120.476 458.792 122.169 457.225 124.203 456.243C127.693 454.918 131.499 457.058 134.587 459.113L141.81 463.868C142.037 463.977 142.239 464.132 142.404 464.322C142.569 464.512 142.694 464.734 142.771 464.974C142.892 465.874 141.786 466.385 140.886 466.494C137.802 466.848 134.694 466.08 132.131 464.33C130.185 462.992 128.288 461.01 125.941 461.253C123.035 461.557 121.734 464.901 120.603 467.649C118.137 473.519 113.792 478.404 108.249 481.536" fill="#F9AC07"/>
<path d="M110.06 479.542C110.62 465.083 111.191 450.516 114.645 436.483C118.098 422.451 124.713 408.795 135.584 399.261C134.149 411.421 129.723 423.034 125.346 434.525C119.436 449.928 113.53 465.331 107.628 480.733" fill="#F9AC07"/>
<path d="M107.543 484.795C105.496 471.635 101.82 458.78 96.5993 446.527C96.0061 444.653 94.841 443.012 93.2675 441.834C90.8355 440.35 87.6253 441.323 84.9865 442.502C78.7128 445.311 72.906 449.063 67.768 453.629C67.3223 453.946 66.9967 454.405 66.8438 454.93C66.8235 455.335 66.9483 455.733 67.1958 456.054C67.4432 456.375 67.797 456.598 68.1936 456.681C69.0035 456.839 69.8404 456.789 70.6256 456.535L85.0717 453.191C86.5016 452.708 88.0436 452.666 89.4979 453.069C91.1881 453.738 92.1366 455.501 92.9513 457.143L107.142 485.743" fill="#F9AC07"/>
<g opacity="0.4">
<path d="M110.073 478.35C112.455 472.135 115.565 466.225 119.339 460.742C120.476 458.792 122.169 457.225 124.203 456.243C127.693 454.918 131.499 457.058 134.587 459.113L141.81 463.868C142.037 463.977 142.239 464.132 142.404 464.322C142.569 464.512 142.694 464.734 142.771 464.974C142.892 465.874 141.786 466.385 140.886 466.494C137.802 466.848 134.694 466.08 132.131 464.33C130.185 462.992 128.288 461.01 125.941 461.253C123.035 461.557 121.734 464.901 120.603 467.649C118.137 473.519 113.792 478.404 108.249 481.536" fill="black"/>
</g>
<g opacity="0.4">
<path d="M110.06 479.542C110.62 465.083 111.191 450.516 114.645 436.483C118.098 422.451 124.713 408.795 135.584 399.261C134.149 411.421 129.723 423.034 125.346 434.525C119.436 449.928 113.53 465.331 107.628 480.733" fill="black"/>
</g>
<g opacity="0.3">
<path d="M107.543 484.795C105.496 471.635 101.82 458.78 96.5993 446.527C96.0061 444.653 94.841 443.012 93.2675 441.834C90.8355 440.35 87.6253 441.323 84.9865 442.502C78.7128 445.311 72.906 449.063 67.768 453.629C67.3223 453.946 66.9967 454.405 66.8438 454.93C66.8235 455.335 66.9483 455.733 67.1958 456.054C67.4432 456.375 67.797 456.598 68.1936 456.681C69.0035 456.839 69.8404 456.789 70.6256 456.535L85.0717 453.191C86.5016 452.708 88.0436 452.666 89.4979 453.069C91.1881 453.738 92.1366 455.501 92.9513 457.143L107.142 485.743" fill="black"/>
</g>
<path d="M129.492 375.841C117.427 390.164 110.361 408.03 109.367 426.731C108.005 457.496 106.194 479.663 106.194 479.663H109.586C109.586 479.663 116.372 417.647 120.895 406.825C125.419 396.003 132.435 380.608 129.492 375.841Z" fill="#F9AC07"/>
<path d="M129.492 375.841C129.384 376.183 129.241 376.513 129.067 376.826L127.765 379.599C126.647 382.031 125.09 385.533 123.363 389.959C121.637 394.385 119.715 399.687 117.94 405.767C115.945 412.271 114.365 418.896 113.21 425.6C112.602 429.163 112.322 432.689 112.067 436.106C111.811 439.523 111.605 442.819 111.422 445.956C111.058 452.243 110.668 457.909 110.146 462.639C109.623 467.37 109.015 471.151 108.48 473.802C108.236 475.116 107.981 476.113 107.823 476.806C107.765 477.155 107.671 477.497 107.543 477.827C107.569 477.471 107.621 477.117 107.701 476.769C107.823 476.088 108.03 475.079 108.249 473.754C108.699 471.139 109.258 467.333 109.708 462.591C110.158 457.848 110.498 452.206 110.839 445.919C111.009 442.782 111.191 439.475 111.447 436.058C111.651 432.518 112.032 428.992 112.59 425.491C113.741 418.748 115.342 412.09 117.381 405.56C119.217 399.48 121.163 394.191 122.95 389.752C124.738 385.314 126.355 381.824 127.547 379.441C128.13 378.225 128.629 377.337 128.957 376.717C129.118 376.415 129.297 376.122 129.492 375.841Z" fill="#263238"/>
<path d="M142.102 404.648C142.102 404.648 119.193 426.536 116.566 447.208C113.94 467.88 112.76 478.836 112.76 478.836H115.022C115.022 478.836 120.396 449.434 127.352 440.192C134.308 430.95 143.695 407.129 142.102 404.648Z" fill="#F9AC07"/>
<path d="M141.835 406.071C141.743 406.312 141.629 406.544 141.494 406.764L140.424 408.698L136.435 415.763C133.079 421.721 128.434 429.99 124.275 439.535C120.619 447.668 117.87 456.178 116.08 464.913C115.423 468.269 115.046 470.993 114.864 472.915C114.742 473.863 114.693 474.605 114.62 475.103C114.606 475.361 114.57 475.618 114.511 475.869C114.482 475.611 114.482 475.35 114.511 475.091C114.511 474.593 114.511 473.875 114.62 472.89C114.826 470.186 115.175 467.495 115.666 464.828C117.336 456.029 120.038 447.458 123.716 439.292C127.397 431.147 131.538 423.218 136.119 415.544C137.846 412.589 139.281 410.218 140.29 408.588L141.506 406.716C141.592 406.489 141.702 406.273 141.835 406.071Z" fill="#263238"/>
<path d="M97.8276 408.491C97.8276 408.491 94.4349 451.695 102.351 477.475H105.063C105.063 477.475 106.875 421.612 97.8276 408.491Z" fill="#F9AC07"/>
<path d="M99.7001 416.662C99.7685 416.858 99.8055 417.063 99.8095 417.27L99.9919 419.021C100.138 420.639 100.332 422.815 100.563 425.466C101.001 430.914 101.585 438.441 102.181 446.746C102.777 455.052 103.275 462.554 103.603 468.051C103.762 470.714 103.883 472.915 103.968 474.52C103.968 475.213 103.968 475.736 103.968 476.271C103.997 476.476 103.997 476.685 103.968 476.891C103.902 476.695 103.865 476.49 103.859 476.283L103.676 474.532C103.53 472.915 103.348 470.738 103.117 468.087C102.667 462.639 102.096 455.112 101.5 446.795C100.904 438.477 100.393 430.987 100.065 425.491C99.919 422.84 99.7974 420.627 99.7001 419.034C99.7001 418.328 99.7001 417.745 99.7001 417.27C99.6787 417.068 99.6787 416.864 99.7001 416.662Z" fill="#263238"/>
<path d="M92.4406 474.97C92.4406 474.97 100.746 480.94 100.32 483.713C99.8946 486.485 79.9279 501.393 81.1439 513.152C82.3599 524.911 92.015 532.973 108.419 532.328C124.823 531.684 135.913 521.457 134.417 511.024C132.921 500.591 116.639 483.968 116.408 483.153C115.873 480.855 123.704 474.97 123.704 474.97H92.4406Z" fill="#263238"/>
<path d="M122.306 490.121C122.306 490.291 116.226 490.437 108.796 490.437C101.366 490.437 95.286 490.291 95.286 490.121C95.286 489.951 101.366 489.805 108.796 489.805C116.226 489.805 122.306 489.939 122.306 490.121Z" fill="#FAFAFA"/>
<path d="M124.215 492.954C124.215 493.125 117.089 493.27 108.297 493.27C99.5056 493.27 92.3677 493.125 92.3677 492.954C92.3677 492.784 99.5056 492.638 108.297 492.638C117.089 492.638 124.215 492.784 124.215 492.954Z" fill="#FAFAFA"/>
<path d="M127.084 496.128C127.084 496.298 118.67 496.444 108.273 496.444C97.8761 496.444 89.4614 496.298 89.4614 496.128C89.4614 495.958 97.8883 495.812 108.273 495.812C118.658 495.812 127.084 495.921 127.084 496.128Z" fill="#FAFAFA"/>
<path d="M129.626 500.275C129.626 500.445 119.898 500.591 107.945 500.591C95.9914 500.591 86.2512 500.445 86.2512 500.275C86.2512 500.104 95.9792 499.958 107.945 499.958C119.91 499.958 129.626 500.092 129.626 500.275Z" fill="#FAFAFA"/>
</svg>
