<svg width="98" height="25" viewBox="0 0 98 25" fill="none" xmlns="http://www.w3.org/2000/svg">
<path d="M6.584 18.168C5.352 18.168 4.248 17.968 3.272 17.568C2.296 17.168 1.512 16.576 0.92 15.792C0.344 15.008 0.0400001 14.064 0.00800008 12.96H4.376C4.44 13.584 4.656 14.064 5.024 14.4C5.392 14.72 5.872 14.88 6.464 14.88C7.072 14.88 7.552 14.744 7.904 14.472C8.256 14.184 8.432 13.792 8.432 13.296C8.432 12.88 8.288 12.536 8 12.264C7.728 11.992 7.384 11.768 6.968 11.592C6.568 11.416 5.992 11.216 5.24 10.992C4.152 10.656 3.264 10.32 2.576 9.984C1.888 9.648 1.296 9.152 0.8 8.496C0.304 7.84 0.0560001 6.984 0.0560001 5.928C0.0560001 4.36 0.624 3.136 1.76 2.256C2.896 1.36 4.376 0.912 6.2 0.912C8.056 0.912 9.552 1.36 10.688 2.256C11.824 3.136 12.432 4.368 12.512 5.952H8.072C8.04 5.408 7.84 4.984 7.472 4.68C7.104 4.36 6.632 4.2 6.056 4.2C5.56 4.2 5.16 4.336 4.856 4.608C4.552 4.864 4.4 5.24 4.4 5.736C4.4 6.28 4.656 6.704 5.168 7.008C5.68 7.312 6.48 7.64 7.568 7.992C8.656 8.36 9.536 8.712 10.208 9.048C10.896 9.384 11.488 9.872 11.984 10.512C12.48 11.152 12.728 11.976 12.728 12.984C12.728 13.944 12.48 14.816 11.984 15.6C11.504 16.384 10.8 17.008 9.872 17.472C8.944 17.936 7.848 18.168 6.584 18.168ZM28.4776 4.608V18H24.3736V16.176C23.9576 16.768 23.3896 17.248 22.6696 17.616C21.9656 17.968 21.1816 18.144 20.3176 18.144C19.2936 18.144 18.3896 17.92 17.6056 17.472C16.8216 17.008 16.2136 16.344 15.7816 15.48C15.3496 14.616 15.1336 13.6 15.1336 12.432V4.608H19.2136V11.88C19.2136 12.776 19.4456 13.472 19.9096 13.968C20.3736 14.464 20.9976 14.712 21.7816 14.712C22.5816 14.712 23.2136 14.464 23.6776 13.968C24.1416 13.472 24.3736 12.776 24.3736 11.88V4.608H28.4776ZM35.5295 6.504C35.9295 5.88 36.4815 5.376 37.1855 4.992C37.8895 4.608 38.7135 4.416 39.6575 4.416C40.7615 4.416 41.7615 4.696 42.6575 5.256C43.5535 5.816 44.2575 6.616 44.7695 7.656C45.2975 8.696 45.5615 9.904 45.5615 11.28C45.5615 12.656 45.2975 13.872 44.7695 14.928C44.2575 15.968 43.5535 16.776 42.6575 17.352C41.7615 17.912 40.7615 18.192 39.6575 18.192C38.7295 18.192 37.9055 18 37.1855 17.616C36.4815 17.232 35.9295 16.736 35.5295 16.128V24.384H31.4255V4.608H35.5295V6.504ZM41.3855 11.28C41.3855 10.256 41.0975 9.456 40.5215 8.88C39.9615 8.288 39.2655 7.992 38.4335 7.992C37.6175 7.992 36.9215 8.288 36.3455 8.88C35.7855 9.472 35.5055 10.28 35.5055 11.304C35.5055 12.328 35.7855 13.136 36.3455 13.728C36.9215 14.32 37.6175 14.616 38.4335 14.616C39.2495 14.616 39.9455 14.32 40.5215 13.728C41.0975 13.12 41.3855 12.304 41.3855 11.28ZM51.8186 6.504C52.2186 5.88 52.7706 5.376 53.4746 4.992C54.1786 4.608 55.0026 4.416 55.9466 4.416C57.0506 4.416 58.0506 4.696 58.9466 5.256C59.8426 5.816 60.5466 6.616 61.0586 7.656C61.5866 8.696 61.8506 9.904 61.8506 11.28C61.8506 12.656 61.5866 13.872 61.0586 14.928C60.5466 15.968 59.8426 16.776 58.9466 17.352C58.0506 17.912 57.0506 18.192 55.9466 18.192C55.0186 18.192 54.1946 18 53.4746 17.616C52.7706 17.232 52.2186 16.736 51.8186 16.128V24.384H47.7146V4.608H51.8186V6.504ZM57.6746 11.28C57.6746 10.256 57.3866 9.456 56.8106 8.88C56.2506 8.288 55.5546 7.992 54.7226 7.992C53.9066 7.992 53.2106 8.288 52.6346 8.88C52.0746 9.472 51.7946 10.28 51.7946 11.304C51.7946 12.328 52.0746 13.136 52.6346 13.728C53.2106 14.32 53.9066 14.616 54.7226 14.616C55.5386 14.616 56.2346 14.32 56.8106 13.728C57.3866 13.12 57.6746 12.304 57.6746 11.28ZM70.0996 18.192C68.7876 18.192 67.6036 17.912 66.5476 17.352C65.5076 16.792 64.6836 15.992 64.0756 14.952C63.4836 13.912 63.1876 12.696 63.1876 11.304C63.1876 9.928 63.4916 8.72 64.0996 7.68C64.7076 6.624 65.5396 5.816 66.5956 5.256C67.6516 4.696 68.8356 4.416 70.1476 4.416C71.4596 4.416 72.6436 4.696 73.6996 5.256C74.7556 5.816 75.5876 6.624 76.1956 7.68C76.8036 8.72 77.1076 9.928 77.1076 11.304C77.1076 12.68 76.7956 13.896 76.1716 14.952C75.5636 15.992 74.7236 16.792 73.6516 17.352C72.5956 17.912 71.4116 18.192 70.0996 18.192ZM70.0996 14.64C70.8836 14.64 71.5476 14.352 72.0916 13.776C72.6516 13.2 72.9316 12.376 72.9316 11.304C72.9316 10.232 72.6596 9.408 72.1156 8.832C71.5876 8.256 70.9316 7.968 70.1476 7.968C69.3476 7.968 68.6836 8.256 68.1556 8.832C67.6276 9.392 67.3636 10.216 67.3636 11.304C67.3636 12.376 67.6196 13.2 68.1316 13.776C68.6596 14.352 69.3156 14.64 70.0996 14.64ZM83.3889 6.84C83.8689 6.104 84.4689 5.528 85.1889 5.112C85.9089 4.68 86.7089 4.464 87.5889 4.464V8.808H86.4609C85.4369 8.808 84.6689 9.032 84.1569 9.48C83.6449 9.912 83.3889 10.68 83.3889 11.784V18H79.2849V4.608H83.3889V6.84ZM97.0145 14.52V18H94.9265C93.4385 18 92.2785 17.64 91.4465 16.92C90.6145 16.184 90.1985 14.992 90.1985 13.344V8.016H88.5665V4.608H90.1985V1.344H94.3025V4.608H96.9905V8.016H94.3025V13.392C94.3025 13.792 94.3985 14.08 94.5905 14.256C94.7825 14.432 95.1025 14.52 95.5505 14.52H97.0145Z" fill="#404040"/>
</svg>
