<svg width="73" height="18" viewBox="0 0 73 18" fill="none" xmlns="http://www.w3.org/2000/svg">
<path d="M12.144 0.271999V2.048H7.584V17H5.4V2.048H0.816V0.271999H12.144ZM26.8324 9.92C26.8324 10.336 26.8084 10.776 26.7604 11.24H16.2484C16.3284 12.536 16.7684 13.552 17.5684 14.288C18.3844 15.008 19.3684 15.368 20.5204 15.368C21.4644 15.368 22.2484 15.152 22.8724 14.72C23.5124 14.272 23.9604 13.68 24.2164 12.944H26.5684C26.2164 14.208 25.5124 15.24 24.4564 16.04C23.4004 16.824 22.0884 17.216 20.5204 17.216C19.2724 17.216 18.1524 16.936 17.1604 16.376C16.1844 15.816 15.4164 15.024 14.8564 14C14.2964 12.96 14.0164 11.76 14.0164 10.4C14.0164 9.04 14.2884 7.848 14.8324 6.824C15.3764 5.8 16.1364 5.016 17.1124 4.472C18.1044 3.912 19.2404 3.632 20.5204 3.632C21.7684 3.632 22.8724 3.904 23.8324 4.448C24.7924 4.992 25.5284 5.744 26.0404 6.704C26.5684 7.648 26.8324 8.72 26.8324 9.92ZM24.5764 9.464C24.5764 8.632 24.3924 7.92 24.0244 7.328C23.6564 6.72 23.1524 6.264 22.5124 5.96C21.8884 5.64 21.1924 5.48 20.4244 5.48C19.3204 5.48 18.3764 5.832 17.5924 6.536C16.8244 7.24 16.3844 8.216 16.2724 9.464H24.5764ZM31.8992 5.984C32.2832 5.232 32.8272 4.648 33.5312 4.232C34.2512 3.816 35.1232 3.608 36.1472 3.608V5.864H35.5712C33.1232 5.864 31.8992 7.192 31.8992 9.848V17H29.7152V3.848H31.8992V5.984ZM54.4843 3.608C55.5083 3.608 56.4203 3.824 57.2203 4.256C58.0203 4.672 58.6523 5.304 59.1163 6.152C59.5803 7 59.8123 8.032 59.8123 9.248V17H57.6523V9.56C57.6523 8.248 57.3243 7.248 56.6683 6.56C56.0283 5.856 55.1563 5.504 54.0523 5.504C52.9163 5.504 52.0123 5.872 51.3403 6.608C50.6683 7.328 50.3323 8.376 50.3323 9.752V17H48.1723V9.56C48.1723 8.248 47.8443 7.248 47.1883 6.56C46.5483 5.856 45.6763 5.504 44.5723 5.504C43.4363 5.504 42.5323 5.872 41.8603 6.608C41.1883 7.328 40.8523 8.376 40.8523 9.752V17H38.6683V3.848H40.8523V5.744C41.2843 5.056 41.8603 4.528 42.5803 4.16C43.3163 3.792 44.1243 3.608 45.0043 3.608C46.1083 3.608 47.0843 3.856 47.9323 4.352C48.7803 4.848 49.4123 5.576 49.8283 6.536C50.1963 5.608 50.8043 4.888 51.6523 4.376C52.5003 3.864 53.4443 3.608 54.4843 3.608ZM68.0509 17.216C67.0429 17.216 66.1389 17.048 65.3389 16.712C64.5389 16.36 63.9069 15.88 63.4429 15.272C62.9789 14.648 62.7229 13.936 62.6749 13.136H64.9309C64.9949 13.792 65.2989 14.328 65.8429 14.744C66.4029 15.16 67.1309 15.368 68.0269 15.368C68.8589 15.368 69.5149 15.184 69.9949 14.816C70.4749 14.448 70.7149 13.984 70.7149 13.424C70.7149 12.848 70.4589 12.424 69.9469 12.152C69.4349 11.864 68.6429 11.584 67.5709 11.312C66.5949 11.056 65.7949 10.8 65.1709 10.544C64.5629 10.272 64.0349 9.88 63.5869 9.368C63.1549 8.84 62.9389 8.152 62.9389 7.304C62.9389 6.632 63.1389 6.016 63.5389 5.456C63.9389 4.896 64.5069 4.456 65.2429 4.136C65.9789 3.8 66.8189 3.632 67.7629 3.632C69.2189 3.632 70.3949 4 71.2909 4.736C72.1869 5.472 72.6669 6.48 72.7309 7.76H70.5469C70.4989 7.072 70.2189 6.52 69.7069 6.104C69.2109 5.688 68.5389 5.48 67.6909 5.48C66.9069 5.48 66.2829 5.648 65.8189 5.984C65.3549 6.32 65.1229 6.76 65.1229 7.304C65.1229 7.736 65.2589 8.096 65.5309 8.384C65.8189 8.656 66.1709 8.88 66.5869 9.056C67.0189 9.216 67.6109 9.4 68.3629 9.608C69.3069 9.864 70.0749 10.12 70.6669 10.376C71.2589 10.616 71.7629 10.984 72.1789 11.48C72.6109 11.976 72.8349 12.624 72.8509 13.424C72.8509 14.144 72.6509 14.792 72.2509 15.368C71.8509 15.944 71.2829 16.4 70.5469 16.736C69.8269 17.056 68.9949 17.216 68.0509 17.216Z" fill="#404040"/>
</svg>
