<svg width="32" height="26" viewBox="0 0 32 26" fill="none" xmlns="http://www.w3.org/2000/svg">
<path d="M32 3.07602C30.823 3.59819 29.5588 3.95119 28.2296 4.10986C29.5861 3.29771 30.6254 2.01075 31.1161 0.479053C29.8274 1.24425 28.4171 1.78295 26.9465 2.07175C25.7496 0.796304 24.0429 0 22.1547 0C18.5305 0 15.5912 2.93743 15.5912 6.56298C15.5912 7.07669 15.649 7.57785 15.7603 8.05902C10.3044 7.78489 5.46747 5.17208 2.22983 1.20191C1.66449 2.17154 1.3409 3.2989 1.3409 4.50174C1.3409 6.77841 2.49996 8.78713 4.26113 9.96379C3.21854 9.93149 2.19884 9.65014 1.28726 9.14326V9.2262C1.28726 12.4063 3.54971 15.058 6.55298 15.6611C6.00128 15.8122 5.4223 15.8912 4.82333 15.8912C4.39983 15.8912 3.98896 15.8511 3.58758 15.7756C4.42297 18.3822 6.84734 20.2795 9.7191 20.3331C7.47241 22.0939 4.64149 23.1435 1.56679 23.1435C1.03721 23.1435 0.513819 23.1119 0 23.0499C2.90557 24.9126 6.35546 26 10.0628 26C22.1369 26 28.7402 15.9994 28.7402 7.32684C28.7402 7.04212 28.734 6.75952 28.7202 6.47793C30.0068 5.54758 31.1174 4.39563 32 3.07602Z" fill="#404040"/>
</svg>
